<?xml version="1.0" encoding="utf-8"?>
<!-- Generator: Adobe Illustrator 27.3.1, SVG Export Plug-In . SVG Version: 6.00 Build 0)  -->
<svg version="1.1" id="Layer_1" xmlns="http://www.w3.org/2000/svg" xmlns:xlink="http://www.w3.org/1999/xlink" x="0px" y="0px"
	 viewBox="0 0 584 517" style="enable-background:new 0 0 584 517;" xml:space="preserve">
<style type="text/css">
	.st0{fill:#EAEFF8;}
	.st1{fill:#E9EFF8;}
	.st2{fill:#D1DEEE;}
	.st3{fill:#98C5F3;}
	.st4{fill:#DFEDFA;}
	.st5{fill:#DEECFA;}
	.st6{fill:#77B2EE;}
	.st7{fill:#E5E9F3;}
	.st8{fill:#FBBEA7;}
	.st9{fill:#F7AF81;}
	.st10{fill:#FC9B79;}
	.st11{fill:#A4D0FC;}
	.st12{fill:#A5D0FC;}
	.st13{fill:#F57D48;}
	.st14{fill:#FFFFFF;}
	.st15{fill:#63A0DF;}
	.st16{fill:#72AFEC;}
	.st17{fill:#6CA7E3;}
	.st18{fill:#4869C6;}
	.st19{fill:#3E5EB4;}
	.st20{fill:#314894;}
	.st21{fill:#A0CBF6;}
	.st22{fill:#FAFCFE;}
	.st23{fill:#70ABE8;}
	.st24{fill:#EFF9FC;}
	.st25{fill:#8FB1DF;}
	.st26{fill:#F4F9FE;}
	.st27{fill:#B0D2F7;}
	.st28{fill:#BFDDFA;}
	.st29{fill:#F8F8FA;}
</style>
<path class="st0" d="M82.6,360.2c-1-3.1-3.3-5.5-4.9-8.1C67.5,335.9,62,318.2,60,299.3c-2.6-23.4,1.7-45.8,8.8-67.9
	c0.2-0.8,0.2-1.6,0.2-2.9c2.1-2.4,4.7-1.8,7.1-1.8c22.3-0.1,44.6,0,67,0c1.7,0,3.3,0.1,5-0.1c4.5-0.6,6.7-3.3,6.4-7.9
	c-0.5-6-5.1-11-11.4-11.3c-4.4-0.2-7.5-1.7-10.3-5c-2.2-2.6-5.1-4.2-8.5-4.9c-2.6-0.5-4.7-1.7-5.8-4.3c-4.6-11-12.8-17.6-24.6-19.7
	c-0.8-0.1-1.6-0.4-2.6-1.2c7.8-21.3,18.4-40.9,30.2-60c1.3-2.1,2.7-4.2,3.5-6.9c2.3-2.4,5.1-1.8,7.7-1.8c29.1,0,58.3,0,87.4,0
	c0.3,0,0.7,0,1,0c9.1,0,12.5-1.9,13.1-7.4c0.8-6.9-5.1-15-12-16.4c-1.6-0.4-3.3-0.4-5-0.4c-3,0-5.4-1.2-7.3-3.6
	c-3.5-4.4-8-7.5-13.7-8.6c-1.5-0.3-3.1-0.8-3.9-2.1c-2.7-5.1-6.3-9.7-7.5-15.8c6-5.2,12.8-8.2,19.6-11.3c18.1-8.6,37.3-13.7,57-16.6
	c16.6-2.5,33.3-4.3,50-3.3c13.8,0.9,24.8,7.6,33,18.8c5.6,7.8,11,15.8,13.7,25.6c-1.4,1.9-3.2,1.9-5.1,1.9c-9.6,0-19.2,0.3-29.3-0.2
	c-5.5-1-9.5-3-12.4-7.9c-3.6-6.1-9.4-8.8-16.5-7.7c-7.3,1.2-11.6,5.9-13.6,12.9c-1,3.5-1.9,6.4-6.4,7c-3,0.4-5.3,3.1-4.9,6.5
	c0.4,3.4,3.4,3.5,6.2,3.5c7.1,0,14.3,0,21.4,0c2.1,0,4.3-0.2,6.6,1.1c2.3,6,0.5,11.9,0.8,18.1c-4.7,5.4-11.3,6.8-17.2,9.3
	c-26.6,11.8-53.2,23.6-79.9,35.3c-1.4,0.6-2.7,1.2-4.1,2.5c-3.1,2.6-3.2,4.6,0.5,6c0.9,0.4,1.8,0.9,2.5,2.2c0.5,1.4,0.7,2.5,0.7,4.1
	c0.3,17.4,0.1,34.3,0.1,51.2c0,1.5-0.1,3-0.9,4.8c-6.3,3.2-9.1,1.6-9.1-5c-0.1-12.8,0-25.6,0-38.4c0-7-0.6-7.6-7.8-7.6
	c-8,0-16-0.1-24,0c-5.1,0-6.2,1.1-6.2,6.1c0,38.8,0,77.5,0,116.3c0,5,1.5,6.5,6.6,6.5c8.5,0.1,17,0.1,25.5,0c4.6,0,5.7-1.3,5.9-6
	c0.3-6.6-0.8-13.3,1-20.3c2.4-1.9,4.7-1.8,7.4-0.7c2,2.5,1.7,5,1.7,7.5c0,18.8,0.1,37.5-0.1,56.8c-0.1,1.4,0,2.4-0.1,3.8
	c0,7.8,0.4,15.1-0.3,22.8c-2.1,2.9-3.5,5.4-0.2,8.5c1,4.7,0.7,9,0.6,13.3c-0.1,17.6,0.4,35.2-0.4,53.2c-1.1,2.7-3,2.4-4.8,2
	c-15.2-3.1-29.8-8.3-44.3-14.9c-1-1.7-0.5-3.1-0.5-4.9c0-8.3,1.3-16.2,1.4-24.5c0.4-1.2,1-1.9,2.1-2.5c4.5,1.1,8.5,2.5,12.9,2.1
	c7.3-0.6,12.1-8.6,9-15.2c-1.5-3.3-4.9-5-5.9-8.7c4.7-2.5,9.8-1.8,14.7-3.8c2.1-0.5,3.8,0.9,5.8-0.3c-0.9-2.2-2.5-2.2-4.7-1.8
	c-5.7,0.8-10.9-0.5-16.1-1.2c-4.8-0.6-7.6-4.3-10.3-7.9c-4-5.5-7.9-11.1-15.2-13.4c-1.7-1.6-2.7-3.6-1.7-5.1c2.8-4.1,1.5-8.2,1-12.8
	c0.6-2.6,4.5-3.9,2.4-6.8c-1.9-2.7-5.1-2.7-8.2-2.3c-0.7,0.1-1.3,0.3-2,0.4c-4.2,0.7-8.6,1.8-9.5,6.6c-0.9,4.8,2,8.1,5.8,10.7
	c0.7,0.5,1.4,0.8,2.3,1.7c1,2.2,0.6,3.9-0.6,5.9c-0.8,0.7-1.3,1.1-2,1.2c-7.9,1.2-11.1,6.9-13.1,13.8c-0.7,2.5-0.7,5.3-3.2,7.3
	c-1.9-1.2-2.3-3.1-2.6-4.8c-1.1-6-4-10.5-10.1-13.1c-1.4-2.7-0.8-4.8,0.8-6.7c1.6-1.8,2.2-4,2.3-6.7c2.5-8.1-1.5-11.9-9.9-13.1
	c-2.1-0.3-4.2-0.2-6.2-1.3c-1.4-0.8-2.9-0.8-4.1,0.5c-1.3,1.4-1.5,3.1-0.4,4.5c2.3,2.8,3.1,6.1,3.8,9.5c0.6,2.9,3.1,4.2,5.4,6
	c1,2.1,0.9,3.9,0.4,6c-2.2,2.9-6,2.2-8.3,4.6c-3.9,4-6.8,8.4-8.5,14.1C84.6,357.6,84.2,359.1,82.6,360.2z"/>
<path class="st1" d="M513.4,198.7c5.2,3.3,11.2,3.9,16.4,6.3c14.4,6.4,27.7,14.1,34.6,29.1c5.8,12.6,6.5,25.9,4.9,39.5
	c-1.2,10.5-2.3,21-5.2,31.3c-6,20.9-15.3,39.7-29.6,56.3c-13.2,15.3-28.4,27.8-46.2,37.8c-2.2-4.3-5-8.1-4.9-13.3
	c0.1-4.3-3-8-5.5-11.5c-1.9-2.7-6.9-2.3-10.5,0.2c-4.7,3.3-7.5,8-9.4,13.2c-1.6,4.3-4.3,8.1-5.4,13c-1.9,2.2-2,4.5-1.7,6.8
	c0.5,3.7,0,7.3-1.9,10.9c-0.9,0.4-1.5,0.3-2.3-0.3c-2.1-6.9-0.8-13.5-1.2-20.1c-0.1-2,0-4,0-6.4c0.1-1.6,0.1-2.7,0.5-4.2
	c0.3-0.8,0.5-1.3,0.8-1.7c5.1-7.1,5.1-8.1-0.2-15.3c-0.5-1-0.7-1.8-0.8-2.9c-0.1-1.4,0.1-2.4,0.5-3.8c3.3-2.8,1.6-5.1-0.3-7.8
	c-0.5-2-0.5-3.7-0.5-5.3c0-32,0-64.1,0-96.1c0-1.3,0-2.7,0.3-4.4c1.6-3,3.9-5.5,0.3-8.8c-1.2-6.8-0.7-13.3-0.6-19.8
	c0.1-12.6-0.6-25.3,0.6-38.3c0.8-1.7,2-2,3.6-2.1c2.9,0.4,3.3,2.4,3.8,4.4c5.3,24.8,36.8,35.6,56.9,15.6
	C511.2,200.1,511.9,199.2,513.4,198.7z"/>
<path class="st2" d="M474,467.1c25.3,1.9,50.6,1,76.9,5.2c-4.6,3.6-8.8,3.3-12.6,3.6c-24.7,1.7-49.4,2.7-74.1,3.4
	c-13.5,0.4-26.9,0.2-40.4,0.7c-38.3,1.6-76.5,0.9-114.8,1c-41.1,0.1-82.1,0.5-123.2-0.3c-17.6-0.4-35.2-0.2-52.9-0.7
	c-18.2-0.6-36.5-1.3-54.7-2c-0.6,0-1.2-0.4-2.1-0.9c-0.7-2.7-0.4-4.9,1.4-7.1c0.7-0.4,1.2-0.5,2-0.4c1.2-0.2,1.5,3.7,2.8,0
	c0.3-0.5,0.4-0.7,0.9-1.1c1-0.5,1.8-0.6,2.9-0.7c1.9-0.1,3.5-0.1,5.3,0.6c1.7,3.7,4.8,3.2,7.8,3.6c4.2,0.6,8.3-0.4,12.4-0.2
	c2.9,0.1,1.1-1.5,1-2.9c1.7-2.6,4-2.7,6.8-2.5c1.4,0.9,1.6,2,1.8,3.2c0.9,6.2,0.9,6.2,7.2,6.2c2.1,0,4.3,0.1,7.2-0.1
	c-3.8-1.5-7.6-1.9-9-6.1c0.1-1.8,0.6-3,2.3-3.9c5.3,0.1,10.1-0.2,15.4,0.3c1.9,0.6,2.6,1.7,3.3,3.3c0.7,6.5,0.7,6.5,6.7,6.5
	c2.3,0,4.5,0.1,6.8-0.3c-3.4-1.4-7.1-2.1-8-6.8c0-1.3,0.2-2.1,1.1-3c4.9-1.8,9.5-1.1,14.1-1c7.4,0.1,14.8-0.9,22.5,1
	c1.9,4,4.8,5,8.7,5c81-0.1,161.9-0.1,242.9-0.1c2.8,0,5.8,0.4,7.8-3.1c6-3,11.9-1.6,18.1-1.4c3.6,1.6,1.8,4.3,1.9,6.6
	c0,1.1-0.3,2.6,1.2,2.8c1.8,0.3,2-1.3,2.1-2.6C473.7,470.9,472.9,469.1,474,467.1z"/>
<path class="st3" d="M451.8,400.2c1.4-7.4,5.1-13.5,8.3-19.7c2.7-5.1,6.7-9.4,13.3-9.5c3.1,0,5.5,0.6,6.9,4.2
	c1.9,4.9,5.6,9,4.5,15.2c-0.3,1.9,3.4,4.5,3.1,8.1c-1,1.3-2.3,2.3-1.1,3.7c2.6,3.1,2.9,6.1,0.5,9.5c-0.4,0.6-0.5,1.7-0.2,2.4
	c2.1,4.9,0.5,10.6,3.4,15.2c0.8,1.4,1.1,3.1,0.2,4.3c-2.6,3.5-2.9,6.9-1.1,10.8c0.5,1.1-0.4,2.2-1.2,3.4c-7.7,2.7-14.1,0.3-19.4-4.7
	C457,431.6,452.4,416.9,451.8,400.2z"/>
<path class="st4" d="M184.6,49c2.5,5.2,6.4,9.5,8,15c0.4,1.2,1.7,2,3.2,2c6.7,0.4,11.5,4,15.1,9.2c1.7,2.4,3.8,2.8,6.4,2.8
	c10.3,0,17,6.1,18.5,16.3c0.8,6-3.5,10.7-10.2,10.7c-22.3,0-44.6,0-66.9,0c-11,0-22,0-33.4,0c-6.6,0-12.8,0-18.9,0
	c-7.7,0-12-5.5-10.3-13.2c1.8-8,8.9-14.1,17.1-13.7c4.7,0.2,5.5-1.5,5.8-5.9c1-17.1,14.1-31.9,31.2-34.3c12.4-1.7,23.2,1.2,32.3,10
	C183,48.4,183.7,48.6,184.6,49z"/>
<path class="st5" d="M388.3,103.8c-0.3,0.3-0.7,0.3-1,0.3c-1.9-1.1-2.8-2.9-3.9-5c-1-12.2,6-20.4,18-21.3c2.9-0.2,4-1.3,4.5-4.1
	c0.5-3.4,0.3-7.1,2.8-10.3c4.3-7.3,8.1-14.4,15.3-19.1c20.1-13.1,47.3-4.7,55.9,17.7c1.3,3.3,3,4.6,6.3,5.1c5.3,0.8,9.7,3.4,12.7,8
	c1.7,2.6,3.4,3.9,7.3,3.3c10.6-1.6,21.1,11.7,17.4,21.8c-1.4,3.8-4.2,6-8.8,5.9c-10.3-0.2-20.6-0.1-31.4-0.1c-4.5,0-8.6,0-13.1,0
	c-2.5-3.2-1.2-5.3,2.3-6.8c3.5-0.8,6.5-0.7,10.1-0.6c10.2-0.2,19.9,0,30.1-0.1c2.8,0.3,3.7-0.7,3.8-3.1c0.3-5.6-5.3-10.6-11.5-9.3
	c-5.1,1-8.1-0.2-10.6-4.7c-2.6-4.6-7-7-12.3-7.5c-4.8-0.4-7.1-2.9-8.5-7.5c-5.7-19.1-30-27-45.9-15.2c-4.3,3.2-8.1,6.9-10.7,12.2
	c-2.8,6-3.1,11.8-2.2,17.9c0.9,5.8-1.6,7.8-7.1,6.1c-10-3.1-14.1-0.7-16.9,10.2C389.6,99.6,389.4,101.7,388.3,103.8z"/>
<path class="st6" d="M460.7,153.3c6.6-5.1,13.4-9.1,21.9-10.1c19.3-0.9,35.7,11.7,37.8,31.5c0.9,8.6-1.5,16.4-6.5,23.7
	c-14.1,16.8-33.9,19-50.8,5.5c-6.7-5.3-10.6-12.7-11.6-21.7c-1.9-1.1-1.9-2.7-1.8-4.1C450.4,168.6,452.7,159.9,460.7,153.3z"/>
<path class="st7" d="M321.9,63.4c11.8-0.4,23.5-0.4,35.7-0.4c0.5,0,1,0,1.2,0c1.8,0.8,2.5,2.3,3.2,3.9c3.6,9,6.6,18.3,10,27.5
	c0.5,1.4,1,2.8,0.1,4.6c-4.7,0-9.4-1-12.7,4c-1.1,0.5-1.7,0.2-2.6-0.5c-0.4-0.5-0.5-0.7-0.7-1.2c-0.5-1.7,0-3.3-0.9-4.7
	c-1.5,0.6-0.9,2.3-1.9,3.5c-4.3,1.5-7-2.3-10.9-2.8c-4.1-2.6-8.3-4.2-12.9-5.8c-2.1-0.9-3.7-0.2-5.6,0.6c-5.3,1-9.4,4-14.1,5.6
	c-1.7,0.6-3.2,1.8-5.4,1.5c-0.3-6.2-0.3-12.2-0.3-18.6c1.6-2.1,3.7-1.8,5.6-1.8c6-0.1,11.9,0.1,17.9-0.1c2.5-0.1,5.8,0.8,5.9-3.3
	c0.1-3.5-1.5-6.1-5.2-6.8C325.3,67.9,322.7,67,321.9,63.4z"/>
<path class="st4" d="M90.6,172c13,0.3,24.4,8.2,28.8,19.8c0.7,1.9,1.5,4,3.8,4c6,0.2,9.6,4.1,13.1,8.1c1.2,1.4,2.2,2.1,4.1,1.8
	c7.9-0.9,14.8,4.8,15.6,12.5c0.6,6.4-2.3,9.7-8.7,9.7c-25.8,0-51.6,0-77.8,0c-7.4,0-14.4,0-21.4,0c-5.9-0.1-8.2-2.5-8-8.2
	c0.2-7.3,6.3-13.7,13.6-13.7c3.9,0,5.3-0.8,5.5-5.1C59.9,184.9,73.6,172.3,90.6,172z"/>
<path class="st8" d="M52.2,470.3c-3-3.2-4-6.8-4.1-10.7c-0.1-10.4,0-20.8,0-31.3c0-3,0.6-5.9,3.3-8.3c5-1.9,10-0.5,15.1-1.8
	c0.3-0.3,0.3-0.4,0.3-0.4c0.5-0.3,1-0.5,2-0.5c2.3,0.5,4.2,1.1,6.3,2.2c2.1,1.8,2.7,4,2.8,6.1c0.8,13.9,1.6,27.9-0.8,42.2
	c-1,2.1-2.7,2.8-4.6,3.8c-2.3,0.7-4.2,0.7-6.5,0.4c-1.6-0.3-2.8-0.8-4.4-0.8c-0.8,0-1.3,0-2.1,0c-1.5,0-2.7,0-4.2,0.4
	C53.9,471.7,53,471.5,52.2,470.3z"/>
<path class="st6" d="M451.5,399.9c1.7,6.1,2.9,12.4,4.5,18.6c2.5,9.7,7.2,18.3,14.9,24.8c4.7,4,10.5,5.3,16.9,4.5
	c-2.3,3.9-5.9,6.3-9.7,8.9c-0.6,0.6-1.2,0.6-2,0.7c-0.5,0.2-1.3,0-0.5,0.8c0.4,0.2,0.5,0.2,0.9,0.5c-0.9,2.5-2.4,4.8-2.4,7.9
	c0.3,2.2,0.5,3.9,0.8,5.7c0.4,3-0.1,4.9-4,4.8c-4.3-0.2-1.9-2.9-1.9-4.5s0.5-3.2,0.8-5.2c-1.3-2.2-2.2-4.2-2.3-6.8
	c2.5-4.5,2.3-4.8-3.7-5.3c-8.1-2.3-9.7-4.3-9.7-11.8c0-3.3-0.8-6-2.9-9c-2.9-4.4-3.6-10.1-2.7-16c0.6-4.7,2.2-9,0.6-13.5
	C448.7,403.5,449.6,401.3,451.5,399.9z"/>
<path class="st9" d="M82.2,360.7c0.6-1.5,1.2-2.7,1.9-4.1c7.5,0.6,9.2,2.6,6.6,8.1c-1.6,1.9-2.2,3.7-2.6,5.7
	c-1.7,9.7-5.5,19-6.5,29.3c-0.8,0.9-1.5,1.2-2.7,1.3c-3.3-0.7-6.1-2.7-9.5-0.3c-0.8,0.1-1.3,0.1-2.1-0.3c-2-3.3-1.4-5.1,2.4-5.4
	c6.5-0.5,9.1-3.3,9.3-10.1C79.2,376.9,79.3,368.8,82.2,360.7z"/>
<path class="st2" d="M58.4,470.3c0.7-0.3,1.3-0.3,2.3-0.3c0.8,0.5,1.2,0.9,1.8,1.5c0.2,0.2,0.7,0.1,0.9,0c0.5-0.3,0.7-0.4,1.2-0.7
	c2.3-0.1,4.5-0.1,7-0.1c2.9,1,1.1,3.8,2.6,5.6c-5.3,0.4-10.6,1.1-16.2-0.5C57.4,474,57.7,472.3,58.4,470.3z"/>
<path class="st2" d="M51.6,470.1c1.2,0.2,2,0.6,3.1,0.9c1.5,1.2,1.5,2.6,0.9,4.5c-6.1,1.1-11.7,0.1-17.9-2
	C42.4,470.2,47.2,471.8,51.6,470.1z"/>
<path class="st6" d="M67,400.6c0.4-0.5,0.9-0.5,1.6-0.6c3.2,5.3,1.7,10.9,0.9,17.2c-1,0.8-1.5,0.8-2.3,0.7
	C66.9,412.2,67,406.7,67,400.6z"/>
<path class="st10" d="M74.6,476.8c-2.8-1.2-2.5-3.3-2.2-5.7c0.7-0.8,1.7-1.4,2.9-2.1c0.7-0.4,1.2-0.6,2.1-0.5
	c0.5,0.3,0.7,0.5,0.8,1.1c-2,2-0.3,4.7-2.1,6.7C75.5,476.7,75.2,476.7,74.6,476.8z"/>
<path class="st9" d="M66.5,418c0.2,2.6-1.8,1.9-3.4,2c-3.5,0.1-6.9,0-10.9,0C56.2,417.2,61.2,418.1,66.5,418z"/>
<path class="st10" d="M55.7,475.8c-0.4-1.4-0.6-2.7-0.7-4.4c0.7-1.4,1.8-1.4,3.2-1.3c0.7,1.7,1.3,3.4-0.2,5.3
	C57.2,475.7,56.6,475.8,55.7,475.8z"/>
<path class="st0" d="M475.8,456.2c0.7,0,1.2,0.3,1.9,0.7c0,0.6-0.4,1.1-0.8,1.7c-0.1,0.1-0.6,0-0.7-0.1
	C475.5,457.8,475.3,457.2,475.8,456.2z"/>
<path class="st11" d="M206.6,330.3c-0.4-21.7-0.5-43.2-0.6-65.1c-1.5-1.9-1.3-3.8-1.4-6c0-3.7-0.4-7.1,0.7-10.7
	c2-2.1,4.1-1.9,6.6-1.5c1.2,0.2,1.8,1.3,3.1,0.1c3.2-0.9,6-0.7,8.8-0.7c16.9,0,33.8,0,50.7,0c2.6,0,5.3-0.3,8.3,1.1
	c1.7,2,1.5,4.1,1.5,6c0,32.6,0,65.2,0,97.8c0,1.7,0.1,3.3-0.8,5.4c-1.9,1.8-3.9,1.9-5.9,1.9c-19.1,0.1-38.2,0.1-57.3,0
	c-1.5,0-3-0.1-4.9-0.9c-2.5-2.7-1.8-5.6-1.8-8.4c-0.1-3.8-0.2-7.6,0.1-11.5c0.2-3.9,1.9-6.4,6.7-5.9c12.8-0.9,25.1-0.3,37.4-0.4
	c6.8-0.1,6.8,0,6.8-6.9c0-14.1,0-28.3,0-42.4c0-5.7-0.2-5.8-6-5.8c-10,0-20,0-30,0c-6.1,0-6.2,0.1-6.2,6.1c0,13.6,0,27.3,0,40.9
	c0,2.2,0.2,4.3-0.6,6.9c-5,1.8-7.9,0-7.6-5.3c0.4-7.5-0.2-14.9-0.2-22.4c0-3.8,0-7.6,0-9.7c-0.6,9.5,0.9,20.8,0,32.1
	C213.6,330.3,212.4,331.5,206.6,330.3z"/>
<path class="st12" d="M205.7,432.4c0.3-23.1,0.3-45.8,0.3-68.9c1.5-2.1,3.6-2,5.6-2c21.9-0.1,43.9-0.1,65.8,0c1.7,0,3.3,0.1,5.3,1
	c1.8,2,1.6,4,1.6,6c0,30.6,0,61.3,0,91.9c0,1.7,0.1,3.3-0.8,5.4c-2.1,1.9-4.3,1.9-6.5,1.9c-21.8,0.1-43.6,0-65.5,0
	c-1.7,0-3.3-0.1-5.3-1c-0.7-0.7-1.2-1-1.2-1.5C204.1,454.3,203.6,443.5,205.7,432.4z"/>
<path class="st12" d="M205.9,214.3c0.1-19.1,0.2-37.7,0.3-56.9c1.6-2,3.7-2,5.6-2c21.9-0.1,43.7-0.1,65.6,0c1.7,0,3.3,0.1,5.3,1
	c1.5,1.5,1.6,3,1.6,4.5c0,26.5,0.3,52.9-0.3,79.8c-1.6,3.2-4.4,2.3-7.1,3c-1,0.2-1.6,0.3-2.6,0.2c-3.8-0.7-7.2-0.8-10.9,0.3
	c-18.6,0.6-36.8,0.8-55.4-0.2c-1.4-0.6-2-1.3-2.7-2.6c-1.4-7-0.7-13.6-0.6-20.7C205.3,218.4,205.5,216.5,205.9,214.3z"/>
<path class="st3" d="M205.6,465.7c25.8,0.3,51.1,0.3,77,0.3c0.9-0.4,1.4-0.7,2.4-1.1c6.1-0.6,11.8-0.3,17.9-0.3c1,0,1.6,0.1,2.7,0.1
	c1,0,1.6,0,2.7,0c5.5-0.2,10.6,0,16.1-0.1c1.4,0.1,2.3-0.1,3.6,0c6.3-0.2,12.1,0,18.4,0c1.1,0,1.7,0,2.8,0c4.5-0.3,8.5-0.2,12.4-0.1
	c3.6,0.1,5.3-1.3,5-5c-0.1-1.5,0-3,0-4.5c0-27.5,0-54.9,0-82.4c0-6.7-0.3-7-7-7.1c-21.5,0-42.9,0-64.4,0c-2.7,0-5.3,0.1-8.4-0.3
	c-1.4-0.4-2.2-0.8-3.2-1.9c-25.7-0.3-51.1-0.3-76.9-0.3c-2.1,0-3.5-0.2-3.4-2.4c0.1-1.6-0.5-3.5,2.5-3.6c2.1-1.5,4.2-1.4,6.6-1.3
	c1,0.2,1.6,0.4,2.4,1c22.7,0.3,45.1,0.3,67.9,0.3c1.2-0.7,1.8-1.4,3.1-2c2.1-0.6,3.7-0.6,5.4-0.6c25.4,0.1,50.8-0.3,76.7,0.3
	c1.1,0.2,1.7,0.3,2.8,0.6c22.9,0.3,45.4,0.1,67.8,0.1c2.6,0,5.3-0.4,8.2,1.3c1.9,0.3,3.4,0.3,3.3,2.4c-0.1,1.6,0.6,3.7-2.5,3.9
	c-2.4,1.7-4.7,1.4-7.1,1.4c-20.1,0.3-40.3,0.1-60.4,0.2c-7.2,0-7.4,0.2-7.4,7.2c0,28.5,0,56.9,0,85.4c0,7,0.2,7.2,7.4,7.2
	c21.8,0.1,43.6-0.1,65.9,0.1c2.1,0.2,3.8,0.2,5.1,2c0.5,4.2-0.7,5.7-4.8,5.6c-83.4-0.1-166.8-0.1-250.2,0c-4.1,0-5.4-1.3-4.8-5.6
	C195.7,463.3,200.4,464.2,205.6,465.7z"/>
<path class="st13" d="M161.9,385.6c-0.7,0.5-1,0.8-1.4,1.3c-1.9,1.7-3.9,2.7-6.6,3.3c-7.4,0.3-14.5,1.1-21.8-1
	c-5.4-3.9-2.8-9.1-3.1-13.5c-1.5,4.2-3.5,8.5-5.5,12.8c-0.8,1.7-1.3,3.9-4.3,3.7c-0.5-0.4-0.6-0.7-0.8-1.4c1-9.1-0.6-17.6-0.7-26.2
	c0-3.2,0.2-6.4,4.2-8c1.6-3.9,2.8-7.6,3.9-11.4c2-6.8,6.3-10.7,13.9-11.1c3.9-1.1,7.3,0.7,11,0.7c5.3,0.9,9.7,3.3,12,7.7
	c6.3,12,16.7,15.4,29.7,14.8c1.5,0.8,1.5,1.8,0.7,3.2c-5,2.7-10.3,2.4-15.7,3.6c-3.4,2.1-6.5,1.2-9.4,0.2c-3.7-1.3-4.8,0.1-4.7,3.6
	c0.1,4.1,0.1,8.2,0,12.3C163.4,382,163.5,383.9,161.9,385.6z"/>
<path class="st14" d="M206,465.5c-4.7,0.5-9.4,0.5-14.5,0.6c-12.5,0-24.5,0-37-0.1c-3-3.9-1.2-8.1-0.9-12c0.8-11,1.5-22,2.9-33
	c0.1-1.2,0.3-2.3,1.3-3.6c12.1,3.4,23.4,8.7,35.5,11.6c4,1,8,2,12.4,3C206,443,206.1,454,206,465.5z"/>
<path class="st11" d="M303.6,99c6.7-2.8,12.7-6.4,19.9-8.1c-2.8,4.5-6.6,8.5-10.4,13.1c-12.7,11.4-24,23.6-35.9,35.2
	c-2.3,8.3-8.9,7.2-15.2,7.2c-17.3-0.1-34.6,0-52,0c-2.3,0-4.7,0.3-7-1.4c0.3-2.3,2.1-2.6,3.6-3.3C238.8,127.5,271.1,113.3,303.6,99z
	"/>
<path class="st15" d="M122.1,356.1c-3.5,3.3-3.4,7.1-3.1,11.2c0.6,7.7,2,15.3,0.3,23.4c-2.8,2.3-5.8,1.6-9.1,1.8
	c-4-0.1-8.4,0.7-10.9-1.9c-1.6-1.7-1.4-1.4-2.9-0.4c-2.5,1.6-5.3,1.5-8.1-0.6c-1.5-8.7,0-16.9,1.4-25.5c2.5-3.1,2.2-4.9-1.5-5.8
	c-1.2-0.3-2.3-1.2-3.8-1.9c0.9-9.2,7.7-17.2,16.1-18.9c3.1-0.6,5.9,0.3,9,0.2c7.4,1.1,9.7,6.2,11.2,12.1
	C121.2,351.8,121.6,353.7,122.1,356.1z"/>
<path class="st16" d="M202.4,144.7c14.7,0.1,29,0.2,43.4,0.3c7.3,0,14.7,0,22,0c3.3,0,7.1,0.8,6.5-4.7c0-0.5,0.7-1.1,1.2-1.5
	c11.2-11.1,22.5-22.3,33.7-33.3c0.9-0.9,2.2-1.5,3.5-2.5c2.6,3.6,1.6,8.3,3.7,12.5c-1.8,4.3-5.3,6.7-8.3,9.6
	c-0.9,0.9-2.2,1.7-3.6,1.1c-1.3-0.6-0.9-2-0.9-3.1c0-2-0.2-4.1,0-5.2c0.2,2.6-0.5,6.1,0.5,10c-0.1,1-0.2,1.5-0.7,2.4
	c-4.5,4.4-9.2,7.7-13.1,12.1c-1.6,1.7-3.4,3.3-4,5.6c-1.2,4.7-4.4,5.6-8.6,5.5c-20.7-0.1-41.5,0-62.2-0.1c-2.8,0-5.6,0.3-8.8-0.4
	c-4.1-0.7-8.2-0.9-6.6-6.6C200.2,145.3,201,144.9,202.4,144.7z"/>
<path class="st17" d="M205.5,213.9c1.9,1.5,1.7,3.2,0.6,5.1c-4.8,1.4-5.8,4.4-5.7,8.7c0.2,9.4,0.2,18.8,0,28.6
	c-0.1,0.7-0.1,0.9-0.2,1.5c-0.4,1.5-0.9,2.6-0.9,4.1c0,1-0.1,1.6-0.2,2.6c0,7.3,0.1,14.3,0,21.3c-0.1,5.1-1.9,6.9-7,6.9
	c-9,0.1-18,0.1-27,0c-4.9,0-6.9-2.1-6.9-7c0-39.4,0-78.9,0-118.3c0-4.7,2.5-6.5,6.9-6.5c9,0,18,0,27,0c5.5,0,7.1,1.5,7.1,7.2
	c0.1,13.1,0.3,26.3-0.1,39.4C198.7,212.7,199.9,214.9,205.5,213.9z"/>
<path class="st3" d="M206.1,153.3c2-1.6,4.2-1.3,6.4-1.3c22.1,0,44.3-0.1,66.4,0.1c3.4,0,5.3-0.8,5.7-4.3c0.2-2.3,1.8-3.8,3.4-5.3
	c4.5-4.4,8.8-9,14.5-12.5c0.9-0.4,1-0.9,0.7-1.8c-0.2-4.5-0.2-8.8-0.2-13.9c1.4,2.4,0.7,4.2,0.9,5.9c0.3,1.7-1,4.3,0.8,5.1
	c2.1,0.9,3.1-1.9,4.5-3.1c2.1-1.8,4.1-3.9,6.7-5.9c2,0.7,2.7,1.9,2.4,3.8c-4.2,5.3-8.9,9.7-14,14.2c-0.3,0.7-0.5,1.1-1,1.8
	c-6.7,4.3-11.4,10.3-17.1,16.2c-0.5,0.7-0.7,0.9-1,1.3c-1,1.1-1.3,2.2-2.1,3.3c-25.5,0.2-50.8,0.2-76.5,0.2
	C206.2,155.9,206.1,154.8,206.1,153.3z"/>
<path class="st18" d="M158.1,416.7c-1.3,16.4-2.7,32.4-4.1,48.9c-0.1,1.2-0.2,2-0.4,3.2c-1.8,2.1-3.7,2.7-6.3,1.5
	c-1.3-0.8-1.2-1.9-1.7-3c-1.9-0.8-2-2.4-2.3-3.8c-1.7-7.4-3.1-14.8-3.5-22.8c5.1-10,10.2-19.5,17.8-27.7
	C158.1,414.1,158.1,415.2,158.1,416.7z"/>
<path class="st2" d="M161.9,385.9c0.9-8.2-0.1-16.4,0.1-24.7c5,0.9,9.3,3.6,14.7,3c1.9,1.3,3.6,2.5,4.9,3.9c5.6,6.3,4.7,14.9-2,19.8
	C176.3,390.3,166.1,389.2,161.9,385.9z"/>
<path class="st5" d="M321.7,62.9c1.8,2.5,3.5,4.1,6.6,4.2c4.1,0.2,6.9,4.1,6.7,8.3c-0.3,4.9-3.7,4.6-7.2,4.6c-7.6,0-15.3,0-23.4,0
	c-9.8,0-19.1-0.2-28.4,0.1c-4.1,0.1-6.9-1-7.8-5.1c-0.5-2.6,3.5-7.9,6.6-7.7c4.2,0.2,4.6-2.6,5-5.2c1.8-10.5,13.8-18.4,24.7-13.4
	c3.4,1.6,6.3,3.8,7.7,6.6C314.3,59.4,317.3,61.4,321.7,62.9z"/>
<path class="st19" d="M158.3,412.6c-6.4,8.5-10.9,17.6-17,26.2c-3.5-2.8-2.5-6.7-2.6-10.8c3.4-12.7,8.6-24.3,13.1-36.2
	c0.4-0.9,1.1-1.7,2-2.7c2.1-0.9,3.9-1.5,6.1-2C159.7,395.4,159.1,403.8,158.3,412.6z"/>
<path class="st20" d="M101.7,331c-5.3-0.2-6.4-3.9-7-7.8c-0.4-2.3-0.5-4.2-2.7-5.9c-2.3-1.9-2.5-4.8-0.5-7.2
	c1.9-2.3,4.6-2.1,6.7-0.4c2.8,2.3,6.2,0.8,9.3,2c5.7,2.3,8,5.2,6.5,11.7c-2.5,1.2-2.4-1.5-4-2.4C108.3,325.1,101.6,324.9,101.7,331z
	"/>
<path class="st20" d="M141,328c-5.7-1.7-10.5-8-9.3-12.6c1.3-4.9,5.6-6.7,10.3-7.4c2.5-0.4,4.9-0.6,7.4-0.2s4.5,1.3,5.3,3.9
	c0.8,2.8-1.6,3.7-3.5,5.2c-0.5,0.7-0.9,1.2-1.3,1.3C144,318.7,142.2,322.9,141,328z"/>
<path class="st12" d="M215,356.5c-0.4,0.5-0.9,0.5-1.7,0.5c-2.7-3.1-1.6-6.7-1.8-10.1c-0.1-2.1-0.2-4.3,0-6.4c0.4-3.7-1-6-5-7.2
	c-0.4-1-0.4-1.8-0.4-2.9c6.8-0.4,6.8-0.4,6.8-6.9c0-11.5,0-22.9,0-34.4c0-1.5-0.4-3.2,0.8-4.7c1.9,1.3,1.1,2.9,1.2,4.2
	c0.4,8.1-0.6,16.2,0.9,24.3c0.5,2.5,0.1,5.2-0.6,7.9c-1.4,5.3,0.3,8.4,5.2,10.2c0.7,0.4,0.9,0.8,0.8,1.7c-5.1-0.3-6.5,2.2-6.4,6.7
	C215.1,344.9,215,350.5,215,356.5z"/>
<path class="st9" d="M140.7,328.5c0-0.7,2.8-9.2,3-9.5c1.5-2.9,4.7,0.2,6.9-1.9c1.1,4.3,4.2,8.6,0,12.9c-1.1,1.1-0.1,2.9,0.3,4.6
	c-3.4,1.3-6.8,1.4-10.5-0.6C140.4,332.3,141.2,330.7,140.7,328.5z"/>
<path class="st9" d="M101.3,331.6c-0.5-4.4-0.1-7.4,5.2-7.8c2.2-0.2,1.6-4.1,3.6-5.4c2.7,0.9,1.1,4.2,3.4,5.5
	c0.7,3.4,0.7,6.6-2.5,8.8c-1.6,1.1-1.1,2.9-1.2,4.9c-2.8,2.4-5.5,1.4-8.6,0.1C101.1,335.6,101.2,333.8,101.3,331.6z"/>
<path class="st11" d="M206.2,333.5c6.8-0.5,6.8-0.5,6.8,6.2c0,5.5,0,10.9,0,16.9c-2,0.5-4.1,0.5-6.6,0.5
	C206,349.3,206.1,341.6,206.2,333.5z"/>
<path class="st15" d="M199.3,264.9c-0.7-0.4-1-0.9-1.3-1.6c0.9-1.3,0.3-2.5,0.8-3.9c0.2-0.3,0.2-0.3,0.2-0.4c2-1.6,4-1.7,6.6-0.3
	c0.4,1.9,0.4,3.6,0.4,5.6C203.9,264.8,201.8,264.8,199.3,264.9z"/>
<path class="st9" d="M193.3,360.9c-0.4-1-0.4-1.9-0.4-3.1c3.3-3.5,4.9,0.2,6.6,1.7c1.1,1-0.5,2.2-1.6,2.2
	C196.5,361.7,195.1,361.2,193.3,360.9z"/>
<path class="st11" d="M447,356.5c-25.3,0.5-50.7,0.5-76.5,0.5c-1.7-1.9-1.9-4-1.9-6.2c0-32.4,0-64.8,0-97.2c0-1.7,0-3.3,0.8-5.4
	c2.4-2.1,5-1.9,7.4-1.9c21,0,42.1,0,63.1,0c2.1,0,4.3-0.1,6.7,1.3C447,284,447,320,447,356.5z"/>
<path class="st11" d="M447.4,465.6c-23.9,0.4-47.6,0.3-71.2,0.5c-4.3,0-5.2-1.4-5.2-5.4c0.1-30.8,0.2-61.6,0-92.4
	c0-4.1,1.1-5.4,5.3-5.4c23.3,0.2,46.6,0.1,70.4,0.1c0.4,1.1,0.4,2.1,0.3,3.6c-1.4,1.5-2.9,0.9-4.2,0.5c-9.1-3.2-16.2,3.1-16.9,12.9
	c-0.1,1.3,0.1,2.7-1.5,3.8c-10.2,1.1-20,0.4-29.8,0.6c-6,0.1-6.1,0.1-6.1,6.2c0,14-0.1,27.9,0,41.9c0,6,0,6,6.2,6c10,0,20,0,29.9,0
	c6.9,0,6.9,0,6.9-6.7c0-11,0.1-22,0-32.9c0-2.3-0.2-4.7,0.8-7.3c4.5-2.8,9.2-2.9,14.2-1.9c0.4,9.3,0.5,18.4,0.5,27.9
	c2.4,3.6,1.1,7.3,1.3,10.6c0.5,11.2,0.3,22.5,0.1,33.7C448.5,463,448.2,464.2,447.4,465.6z"/>
<path class="st12" d="M447.4,181.5c-0.3,20.1-0.4,39.8-0.4,59.9c-0.9,1.6-2.2,1.9-3.6,2c-23.7,1.7-47.5,1.4-71.7,0.5
	c-1.1-0.5-1.6-0.9-2.3-1.8c-1-2.2-0.9-4-0.9-5.8c0-24.4,0-48.8,0-73.3c0-1.8-0.1-3.7,0.9-5.8c2.1-1.9,4.3-1.8,6.5-1.8
	c21.8,0,43.6,0,65.3,0c1.7,0,3.3,0.1,5.3,1c2.2,2.4,2,5,1.9,7.4C448.3,169.6,449.4,175.4,447.4,181.5z"/>
<path class="st6" d="M544.7,234.5c11.4,19.7,3.6,39.3-11.5,48.6c-11,6.8-27.3,6.3-37.3-1.1c-12.5-9.2-17.8-24.2-13.6-38.8
	c3.7-13.2,15.5-22.8,29.3-24.3C525.6,217.4,536.3,223,544.7,234.5z"/>
<path class="st6" d="M504.5,299.4c15.3,10.6,20.4,28.7,12.6,44.1c-8.3,16.4-26.1,23.9-43.4,17.4c-13.9-5.2-21.6-16.2-22.4-30.8
	c-0.7-12.8,4.7-23.4,15.7-30.4C479.3,291.8,491.8,291.8,504.5,299.4z"/>
<path class="st3" d="M370.7,242.8c25.3,0.2,50.4,0.7,75.9-0.8c2.1,0,3.5,0.3,3.4,2.4c-0.1,1.6,0.3,3.5-2.6,3.6
	c-25.7,0-51.1,0-76.9,0c-0.8,0.6-1.2,1.1-2.1,1.7c-2.4,0.9-4.4,0.8-6.4,0.8c-17.1,0-34.2,0-51.4,0c-2,0-4,0-6.3-1
	c-2.6-5.9-1.3-7.9,4.8-8c16-0.1,32,0,48-0.1c2.5,0,5,0.2,7.9-0.4c0.9-0.4,1.4-0.7,2.4-0.8c0.6,0,0.9,0.1,1.5,0.3
	C369.4,241.6,369.7,242.3,370.7,242.8z"/>
<path class="st14" d="M447.4,466c-0.4-15.7-0.4-31.4-0.4-47.5c0.4-0.5,0.8-0.5,1.5-0.5c3.2,2.3-0.1,5.4,1.6,8.3
	c1.9,3.3,0.2,8.4,5.5,10.4c1,0.4,0.7,5.1,0.2,6.8c-2.2,7.2,3.3,8.2,7.8,10.6c1.6,1,2.1,2.5,3.4,3.8c0.3,0.4,0.5,0.6,0.8,1.4
	c0.3,2.9,3,4.3,2.1,7.2c-6,0.4-12,0.4-18.4,0.4C450.2,465.8,448.9,466.1,447.4,466z"/>
<path class="st21" d="M446.9,389.6c-4.4,0.4-8.7,2-13.6,1.4c-1.1-0.4-1.5-1-2-1.9c-0.7-2.5-0.3-5.4-4.3-5c-0.8-0.2-1.2-0.4-1.8-0.9
	c-2.9-12.9,8.8-22.8,21.3-16.2c0.4,0.8,0.5,1.5,0.5,2.6c2.3,5.4,1.9,10.5,0.3,16.1C447.1,387.1,447,388.2,446.9,389.6z"/>
<path class="st14" d="M447.6,182c-0.5-8-0.5-16-0.7-24.5c-0.9-1.5-1-2.6-0.4-4.2c2.3-1.8,4.5-2.2,7.3-1.4c2.5,0.4,4.7-0.3,7.1,1.1
	c-6.3,8.4-10.4,17.4-9.6,28.6C450.3,181.9,449.1,182,447.6,182z"/>
<path class="st2" d="M447.4,386c-0.4-5-0.4-10-0.4-15.6C453.4,374.9,453.6,378.9,447.4,386z"/>
<path class="st18" d="M153.5,388.7c-3.1,9.5-6.7,19.1-10.2,28.6c-1.1,3.1-2.2,6.2-3.4,9.6c-2.8,13.3-6.6,25.9-11,38.5
	c-0.7,1.1-1.1,2.1-1.7,3.3c-2.8,2-4.8,1.2-6.6-1.5c-3.5-12.3-3-24.2,0.6-35.7c2.5-8,3.3-16.2,4.3-24.3c0.3-2.1,0.2-4.3,0.9-6.8
	c0.9-4.6,0.7-9.2,4.1-12.9C138.1,390.1,145.6,389.4,153.5,388.7z"/>
<path class="st22" d="M127.3,399.7c-0.6,8.1-1.5,15.8-2.2,23.6c-0.5,5.3-3.8,9.8-4.4,15.2c-1,9.3-0.7,18.5-0.1,28.3
	c-2.8,0-5.1,0.9-7.6,2.4c-2.8,0.8-4.4-0.8-5.9-3.1c-1.1-4.3,0-8,0.5-11.8c2.1-17.5,5.8-34.8,9.8-52.4
	C122.5,395.6,122.8,395.5,127.3,399.7z"/>
<path class="st22" d="M128.8,465.9c2.8-13.1,6.5-25.7,10.7-38.4c0.5,3.4,0.8,7,1.3,11c0.6,9.6,2.5,18.5,4.7,27.9
	C140.1,466.7,134.6,467.8,128.8,465.9z"/>
<path class="st13" d="M86.2,468.7c-1.1,0.2-1.8,0.3-2.9,0.3c-0.4-4.3-0.3-8.6,0.4-12.7c1.8-12.1-0.6-24.1-0.3-36.6
	c3.6-2.9,5.2-0.2,7.3,2.4c1.5,9.4,0.6,18.5,0.7,27.9c-1.1,4.1-1.1,7.9-1.1,11.7C90.4,464.6,89.8,467.3,86.2,468.7z"/>
<path class="st8" d="M83.7,418.1c1.6,11.8,3.1,23.2,1.5,34.8c-0.7,5.1,1.3,10.6-2.1,15.8C83,469.1,83,469,83,469
	c-0.7,0.7-1.4,1.4-2.9,1.2c-0.7-0.2-1.1-0.2-1.8-0.2c-0.3,0-0.3-0.5-0.3-0.7c2.3-4.8,2.6-9.7,2.5-14.7c-0.1-8.8,0-17.6,0-26.4
	c0-2.5-0.3-5-1.1-7.8c-0.1-1,0-1.6,0.6-2.4C81.4,417,82.5,417,83.7,418.1z"/>
<path class="st20" d="M107.3,465.8c1.8,1.3,3.4,2.3,5.3,3.6c1.3,1.5,3.6,0.9,4.5,4c-5.1,0-9.9,0-14.7,0c-2.6,0-5.3-0.3-7.9-0.2
	c-2.9,0.2-3.5-1-2.6-3.8c-0.5-1.1-0.4-1.8,0.3-2.7c1.4-0.8,2.6-1.1,4.2-1.3c1.7,0.1,3.1,0.6,3.8,1.7c1.3,2.2,1.3-0.2,2.3-0.6
	C104.2,465.7,105.6,465.3,107.3,465.8z"/>
<path class="st20" d="M120.5,467.8c0-0.4,0.2-0.5,0.3-0.6c1.5,1.5,3.4,1.8,5.7,1.8c1.3,2.9,3.7,3.9,6.4,4.6c1.8,0.5,4,0.2,5.2,3
	c-4.5,0-8.7-0.3-12.9,0.1c-4.6,0.5-6-1.4-5.3-5.6C120.2,470.1,120.4,469.2,120.5,467.8z"/>
<path class="st20" d="M147,470.4c2-0.7,3.9-1,6.2-1.3c2.2,5.1,8,3.8,12.7,7.5c-6.7,0-12.1,0.4-17.3-0.1
	C145,476.1,147.6,472.7,147,470.4z"/>
<path class="st7" d="M93.2,466.6c-0.6,0.8-0.8,1.3-1.2,2.1c-1.8,0.3-3.5,0.3-5.7,0.3c2.5-2.2,3-5.2,3-8.7c0-2.7,0.4-5.5,0.7-8.6
	c0.5-0.5,1.1-0.7,1.3-0.1C92.9,456.3,94.8,461.1,93.2,466.6z"/>
<path class="st10" d="M79.9,470.4c0.8-0.7,1.7-1,2.9-1.4c0.3,0.6,0.3,1.3,0.3,1.9c-0.1,1.2,0.4,3-1.6,2.9
	C79.5,473.8,79.9,472.1,79.9,470.4z"/>
<path class="st21" d="M341.8,96.3c4.1-0.3,6.9,2.7,10.9,3.6c0.5,0.2,0.7,0.3,1.1,0.8c1.1,2.9,0.2,5.7,1.2,8.7
	c1.4-2.4,0.3-4.9,1.9-7.1c0.7,0,1.2,0.2,2.2,0.7c3.1,8.4,5.8,9.6,12.9,5.6c3.6-0.4,6,1.6,8.9,3.2c1.5,1.1,2.7,1.9,4.1,2.9
	c-0.3,3.1-5.2,5.9-6.9,5.5c5.4-0.8,12.5-0.5,19.9-0.3c0.8,0.2,1.3,0.4,2,0.9c16.1,7.2,31.9,14.3,47.7,21.3c1.1,0.5,2.1,1,3.3,1.8
	c-0.3,2.9-2.5,2.5-4.2,2.6c-21,0.2-42,0.1-63,0.1c-3.2,0-5.4-1.1-6.2-4.5c-0.7-2.9-2.9-4.8-4.9-6.8c-3.6-3.7-7.3-7.3-11.2-11.2
	c-1.1-6,4.4-3.9,6.6-5.8c0.5-0.4,2.1,0,3.1-0.6c-3.9,0.1-7.8-0.1-11.4,2.8c-4.9-2.9-9.1-6.4-12.9-10.8c-0.4-0.7-0.6-1.2-0.8-2
	C345.2,103.3,341.8,100.6,341.8,96.3z"/>
<path class="st23" d="M360.9,121.7c5.5,5.5,10.9,10.7,16.2,15.9c0.7,0.7,1.7,1.6,1.7,2.4c-0.5,5.5,3,5,6.7,5c20-0.1,40,0,60,0
	c1.7,0,3.3-0.2,5.3-0.6c5.7,0.1,2.5,4.4,3.5,7.2c-2.1,0.7-4.2,0.9-6.8,1.2c-2,0.8-3.6,0.8-5.3,0.8c-23,0-46,0.1-69.4-0.1
	c-1.1-0.1-1.7-0.2-2.7-0.6c-0.9-0.4-1.3-0.8-1.7-1.7c-0.3-3.5-1.9-5.8-4.1-8c-7.8-7.8-15.9-15.3-23.3-23.9c0.7-4.2,3.2-7.2,6-10.3
	c4,3.6,8.8,6.1,12,10.7C359.7,120.4,360.4,120.7,360.9,121.7z"/>
<path class="st1" d="M483.3,99.6c-3.3,0.4-6.3,0.4-9.8,0.4c-7.4-3.5-7.4-3.5-7.6,4.6c0,0.3-0.2,0.6-0.6,1.2c-1,0.3-1.7,0.3-2.8,0.3
	c-2.1-1.2-1.4-3.4-2.4-5.5c-1.2,1.9-0.6,3.7-1.2,5.2c-0.7,2-1.7,3.8-4.1,3.6c-2.2-0.2-2.7-2.1-3-4c-0.2-1.6,0.2-3.3-0.8-4.8
	c-4.5,3.2-4.7,3.1-7.2-2.4c4.2-3.3,9.3-5.1,12.6-9.3c4.5-5.8,7-12.4,7.4-19.8c0.1-2-0.1-4,0.6-6.3c2.4-2.5,4-1,5.6,0.6
	c0.3,0.3,0.7,0.8,0.8,1.2c1.3,7,4.8,11.8,12.5,12.4c0.2,0,0.4,0.5,0.7,1.2C484.6,85.6,485.4,92.4,483.3,99.6z"/>
<path class="st3" d="M393.6,118.8c1.6,0.6,2.8,1.2,4.3,1.9c-6.2,0.3-12.6,0.3-19,0.3c-4.3,0-4.6-0.8-2.9-5.4
	c1.8,0.8,0.3,2.8,1.9,4.1c1.4-2.8,4.4-3,7-4.4C388.2,115.3,390.7,117.1,393.6,118.8z"/>
<path class="st5" d="M433.8,99.7c-0.8,1.9-2.2,3.4-1.8,5.9c-2.5,0.6-5-0.1-7.8,1.1c-1.5-3.9-0.4-5.7,3.5-5.3c1.8,0.2,2.8,0,3.3-2.1
	C432,98.5,432.8,98.9,433.8,99.7z"/>
<path class="st2" d="M402.5,106c-0.5-1.7-0.5-3.3-0.5-5.4c0.3-0.9,0.8-1.1,1.7-0.8c1.6,3.4,5.2,3.4,7.3,5.7
	C408.3,105.9,405.6,105.9,402.5,106z"/>
<path class="st2" d="M392.5,106c-0.1-2,0.3-3.9,2.9-4c2.4-0.1,2.7,1.4,2.6,3.6C396.3,106,394.6,106,392.5,106z"/>
<path class="st14" d="M156.3,98.7c-16.1-0.2-31.8,1-47.6,1.2c-6.5,0.1-8.9-4.4-5.5-10.2c3.5-6,8.8-7.8,15.7-5.3
	c6.2,2.2,6.3,2.2,6.1-4.4c-0.3-9.3,0.7-17.7,7.4-25.4c11.1-12.8,31.1-14.7,43.6-4.1c5.4,4.6,9.6,10.1,11.1,17.3
	c0.4,1.9,1.5,3.1,3.7,3.3c8,0.7,14.2,4.1,17.7,11.7c1,2.2,3.2,2.3,5.6,1.7c8.2-1.9,13.1,1.3,15.3,9.3c0.7,2.7,0.4,4.6-3.1,5.2
	c-0.7-0.6-0.4,0.2-0.7-0.4c-1.8-2.9-1.9-6.8-5.6-8.5c-3.8-1.7-6.7,0.9-9.9,2.1c-2.3,0.8-3.8,0-4.8-2.1c-0.4-0.9-0.7-1.8-1.1-2.8
	c-2.8-7.3-6.4-9.8-14.2-10.1c-6.3-0.2-6.5-0.3-8.1-6.4c-0.9-3.2-1.7-6.4-4.1-9.8c-0.8,3.4-0.4,6.3-0.5,9.1
	C176.9,82.8,168.3,94.6,156.3,98.7z"/>
<path class="st24" d="M156.5,99c-0.1-2.7,2.5-2.2,4.1-3.2c9.9-6.5,15.4-15.3,15.5-27.3c0-2.2-0.1-4.3,0-6.5c0.1-1.2-0.7-3.1,1.1-3.4
	c1.5-0.2,1.8,1.6,2.5,2.7c2.1,3.5,3.2,7.3,4,11.2c0.5,2.6,1.5,3.8,4.2,3.5c9.8-1,16,3.2,18.2,12.9c0.8,3.5,2.8,2.7,5.2,1.5
	c9-4.4,13.3-2,14.7,8.2C203,99,180,99,156.5,99z"/>
<path class="st14" d="M465.2,62.7C449,63,433,63,416.5,63c4.3-11.4,18.2-20.2,30.7-18.9c12.8,1.3,24.7,10.2,27.9,22.8
	c0.8,3.1,1.9,5.2,5.8,5.4c7.2,0.4,13,3.9,16.1,10.8c1.7,3.9,4.6,2.2,7.2,1.7c7.7-1.6,14.6,4.2,13.8,11.7c-0.2,1.6-0.5,3-2.6,3.5
	c-1.3-0.8-1.5-1.9-2-3c-2.8-6-6-7.2-12-4.7c-6.1,2.5-6.4,2.5-8.6-3.7c-1.7-4.7-4.9-7.8-9.4-10.3c-1.1-1.3-2.3-1.4-3.4-1.2
	c-6,1.2-8-2.1-8.9-7.3C470.5,66.5,470.2,62.6,465.2,62.7z"/>
<path class="st24" d="M483,78.5c6.3,0,9.2,4.5,10.8,9.7c1.3,4.4,2.7,5.4,7.1,3.1c7.4-3.9,12.9-0.6,14.2,8.4
	c-10.4,0.4-20.7,0.4-31.5,0.4C483,93,483,86,483,78.5z"/>
<path class="st22" d="M476,158.6c-0.8,6-2.4,11.2-8.9,15.1c7.5,0,13.5,0,20,0c-1.5-2.9-4.1-4-5.7-6c-1.2-1.4-1.8-2.9-1.1-4.5
	c0.7-1.6,2.3-1,3.5-1c10.4-0.4,10.4-0.4,10.4,9.9c0,6.7,0,13.3-0.1,20.4c-2,3.2-4.8,4.4-8.4,4.9c-2.3-0.1-3.2-2.7-5.6-2.5
	c-1.6-1.9-1.1-4.3-2.6-6.1c-3.5,4.1,0.7,4.6,2.9,6.5c0.5,1.1,0.5,1.8-0.2,2.9c-6,2.3-11.2,0.6-16.7-2c-8-9-8.3-19.1-4.6-29.3
	c3.7-10,11.4-16.4,22.2-17.9c8.1-1.2,16-0.1,22.9,5.6c0.7,1.1,1.1,2.1,0.9,3.4c-0.2,0.6-0.4,0.8-0.8,1.1c-0.6,0.1-0.8,0.1-1.7-0.1
	c-1.3-0.6-1.9-0.9-2.9-1.3c-0.5-0.3-0.7-0.4-1.2-0.8c-8.7-5.4-17.1-4.8-25.2,0.2c-9.3,5.7-12.5,14.5-11.9,23
	c-0.8-7.1,2.2-14.7,9.5-20.6C472,158.2,473.7,156.5,476,158.6z"/>
<path class="st5" d="M503.7,159.3c0.2-1.4,0.2-2.5,0.3-4c15.9,10.8,14.9,35.1-0.7,46.5c-1,0.7-2.1,2.2-3.4,1.6
	c-1.5-0.6-0.8-2.3-0.8-3.6c0-4.6,0.1-9.3,0.5-14.3C504.6,177.3,505.8,168.7,503.7,159.3z"/>
<path class="st5" d="M463.1,196.3c5.3-0.1,10.3,2.6,16.2,1.6c2.2,2.1,3.9,2.9,5.4-0.7c3-1.6,5.7-2.9,8.8-4.3
	c0.4,0.4,0.5,0.9,0.5,1.4c-0.4,4,2,9.9-1.2,11.7c-4.1,2.4-10,1.4-15,0.2C471.8,204.9,467.1,201.4,463.1,196.3z"/>
<path class="st4" d="M476.3,158.9c-3.8-0.1-9.1,4.3-11.4,8.8c-2.8,5.5-3.4,11.3-2.7,18.5c-4.3-8.7-1.4-21.8,5.7-27.4
	c7.5-5.9,16-8.7,25.6-5.7c2,0.6,4.2,1.1,5.4,3.6c-0.6,1-1.4,1.1-2.7,0.6c-0.4-0.2-0.3-0.2-0.3-0.2c-5.4-2-11-0.9-16.8-0.2
	C478.1,157.6,477.3,158.2,476.3,158.9z"/>
<path class="st14" d="M496.1,157.4c0.6-0.3,1.4-0.3,2.5-0.4c0.4,0,0.4,0,0.4,0c0.7,0.8,1.7,0.4,2.7,0.8c0.3,0.2,0.3,0.2,0.3,0.2
	c0.2,0.2,0.4,0.5,0.9,0.8c0.2,0.2,0.6,0.2,0.9,0.2c3.9,9.3,3.2,18-3.6,26.1c-0.5-6.9-0.9-13.9-0.9-21
	C499.1,161.4,498.5,159.3,496.1,157.4z"/>
<path class="st14" d="M479.4,157.1c5-3.1,10.5-2.9,16.4-0.3C490.6,157.1,485.2,157.1,479.4,157.1z"/>
<path class="st17" d="M347,108.6c-1.5,3.7-3.5,6.8-5.9,10.1c-0.4,0.4-0.6,0.5-1.2,0.5c-2.7-4.8-7.5-8.2-6.6-14.6
	c0.4-2.9-3.2-4.7-6.7-4.2c-3.6,0.6-4.6,3.2-4.1,6.2c0.8,5.1-1.7,7.8-6.2,9.5C316,116,316,116,316,116c-2.7-3.6-3.5-7.8-3-12.7
	c3.6-4.2,5.3-9.7,10.8-12.1c1.6-0.8,2.7-3.1,4.9-1.2c7.1,4.6,12.1,10.9,18,16.8C346.9,107.5,347,107.9,347,108.6z"/>
<path class="st25" d="M346.9,106.7c-4.3-1.1-6.4-5.2-9.6-8c-2.9-2.5-5.5-5.3-8.2-8.2c4.2,1.2,9,1.5,12.6,5.3
	C343.6,99.5,345.3,102.9,346.9,106.7z"/>
<path class="st14" d="M91.3,222.7c-13.7-0.1-27.1,0.8-40.6,1.2c-5.4,0.2-7.1-2.3-5.3-7.5c1.9-5.7,8.8-8.1,14.4-5
	c1.3,0.7,2.4,2.1,4,1s0.9-2.5,0.6-4c-1.7-10.5,1.2-19.5,9.9-25.9c9.1-6.7,19.3-7.5,29-2c5.5,3.1,10.3,8,11.9,14.8
	c0.7,3.1,2.3,4.7,5.6,5.2c5.5,0.8,10.1,3.1,12.4,8.7c0.8,2,2.3,2.5,4.8,2.1c6.3-1.2,10.7,0.9,12.3,5.7c0.7,2,2.4,4.9-1.9,6
	c-1.3-0.8-1.6-2-2.1-3c-2.1-4.1-4.1-5-8.4-3.4c-5.6,2-5.7,2-8.1-3.5c-2.4-5.2-5.9-8.3-12-7.8c-3.8,0.3-5.9-1.4-6.5-5.2
	c-0.4-2.5-1.4-4.8-2.8-7.6C107.8,205.7,104.9,217.1,91.3,222.7z"/>
<path class="st24" d="M91.5,223c-0.4-1.1,0.2-1.8,1.2-2.3c11.2-5.3,13.9-15.3,14.4-26.4c0.1-1.4,0-2.9,0-5.1c4.1,3.3,5,7.4,5.8,11.3
	c0.5,2.7,1.4,3.9,4.1,3.5c8.1-1.2,12.5,3.1,14.7,10.3c1,3.3,2.5,2.7,4.8,1.6c7-3.2,10.6-1.2,11.7,6.7C129.3,223,110.6,223,91.5,223z
	"/>
<path class="st13" d="M79.7,418.8c1.7,2.4,2.4,4.6,2.4,7.3c-0.1,11.6,0,23.3-0.1,34.9c0,3,0,6.1-3.5,8c-0.9,0.1-1.4,0.1-2.4,0
	c1.9-15,1.4-30.1,0.1-45.1c-0.1-1.4-0.2-2.7-1.8-3.7c-0.7-0.6-0.9-1-0.7-1.9c1.3-1.3,2.5-1.1,4.1-0.7
	C78.6,417.9,79,418.1,79.7,418.8z"/>
<path class="st10" d="M70,444c0-5.5,0-10.5,0-15.5c0-1.2-0.5-3.1,1.3-3.2c2-0.1,1.6,1.8,1.6,3c0,11.1,0,22.3,0,33.4
	c0,1.2,0.4,3.1-1.6,3c-1.9-0.1-1.3-2-1.3-3.2C70,455.8,70,450.1,70,444z"/>
<path class="st10" d="M67,457.9c-0.5,2.6,1.2,6.5-1.3,6.5c-3.3,0-1.6-4-1.6-6.1c-0.2-9.8-0.1-19.6-0.1-29.4c0-1.3-0.6-3.6,1.5-3.5
	c2.1,0,1.4,2.3,1.4,3.6C67,438.4,67,447.9,67,457.9z"/>
<path class="st10" d="M61,447c0,4.8,0.1,9.1-0.1,13.4c-0.1,1.4,1.1,4-1.4,3.9c-2-0.1-1.5-2.6-1.5-4.2c-0.1-3.7,0-7.3,0-11
	c0-6.6,0-13.3,0-19.9c0-1.5-0.2-3.6,1.6-3.7c2.3-0.1,1.3,2.2,1.4,3.5C61.1,434.9,61,440.7,61,447z"/>
<path class="st10" d="M52.6,431.7c0.9-2.3-0.6-6.2,1.5-6c3.6,0.4,0.8,3.7,0.9,5.7c0.1,10,0.1,20,0,30c0,1,0.6,2.7-1,2.9
	c-1.8,0.2-1.9-1.5-1.9-2.8C52.2,451.8,51.5,441.9,52.6,431.7z"/>
<path class="st10" d="M64.3,471.9c-0.3,1-0.7,1.8-1.7,1.5c-1.3-0.4-1.4-1.6-1.5-3.1c1.1-0.2,2.2-0.1,3.5,0.3
	C64.7,471.2,64.6,471.5,64.3,471.9z"/>
<path class="st9" d="M73.8,418c0.2,0.8,0.2,1.1,0.2,1.7c-1.5-0.2-3-0.7-4.7-1.4c-0.2-0.3-0.3-0.3-0.3-0.4
	C70.5,416.8,72,416.7,73.8,418z"/>
<path class="st4" d="M467,459.1c-1.7-1.1-2.9-2.3-3-4.5c3,0,7.5-2.2,6.9,3.9c-0.1,1.2-0.9,1.6-2.4,1.5c-0.4,0-0.4,0-0.4,0
	C467.8,459.7,467.5,459.5,467,459.1z"/>
<path class="st14" d="M475.6,455.9c0.3,0.6,0.3,1.2,0.4,2.1c-0.6,1.1-1.2,2.7-2.3,1C472.7,457.5,472.8,456,475.6,455.9z"/>
<path class="st22" d="M84.3,418.6c-1.1-0.2-1.9-0.4-3-0.6c-2.8-5.6-1.9-11.4-0.7-17.5c0-11.7,4.9-22,6.8-32.9
	c0.2-1.2,1.3-2.3,2.3-3.6c1.2,8.3-1.2,16.8-0.3,25.7c1.5,2.4,1.9,4.7,2,7c0.3,6.9,0.2,13.9,0.1,20.8c0,1.5-0.2,3-1.6,4.5
	C88.3,420.4,87,418.9,84.3,418.6z"/>
<path class="st22" d="M74.4,418.3c-1.8-0.1-3.2-0.2-5-0.4c-0.4-5.7-0.4-11.3-0.5-17.4c2.7-4,5.6-3.2,9-0.7
	c2.4,6.1,1.9,12.1,0.4,18.5C77,418.6,75.9,418.4,74.4,418.3z"/>
<path class="st3" d="M78.4,418.8c-0.3-6-0.2-11.9-0.1-18.2c0.7-0.5,1.3-0.5,2.3-0.6c0.4,5.7,0.4,11.3,0.4,17.4
	c-0.3,0.7-0.5,0.9-0.9,1.4C79.5,419,79.1,418.9,78.4,418.8z"/>
<path class="st26" d="M221.6,332.9c-0.5-0.4-0.5-0.9-0.6-1.6c0-17.1,0.2-33.9,0-50.7c0-4.2,0.8-5.8,5.4-5.7
	c11.8,0.3,23.6,0.2,35.4,0.1c3.2,0,4.4,0.9,4.3,4.2c-0.1,16.5-0.2,32.9,0,49.4c0,3.6-1.3,4.4-4.6,4.4
	C248.3,332.8,235.2,332.9,221.6,332.9z"/>
<path class="st3" d="M206.6,242.7c19,0.3,37.7,0.3,56.9,0.3c3.5-1,6.6-0.3,10-0.2c0.9,0.2,1.3,0.2,2.1,0.2
	c7.5-1.1,14.8-1.7,22.1-1.4c5.5,0.2,5.7,0.3,5.7,6.6c-3.3,3.4-7.3,1.9-11,2.2c-1.8,0.2-3.7,0-5.9-0.3c-1.4-0.3-2.2-0.8-3.1-1.9
	c-23-0.3-45.7-0.3-68.9-0.3c-0.6,0.1-0.8,0.2-1.2,0.2c-2.3-0.2-4.3-0.2-6.7-0.2c-0.8,0.4-1.3,0.6-2.3,0.5c-0.9-0.4-1.3-0.7-1.8-1.5
	c-0.5-1.5-0.5-2.6,0.3-4C204.1,242,205.2,241.9,206.6,242.7z"/>
<path class="st0" d="M203.8,247.7c0.7,0.2,1.2,0.2,2,0.3c0.3,3.4,0.3,6.8,0.3,10.6c-2.1,0.5-4.1,0.5-6.6,0.5
	c-0.5-11.3-0.2-22.6-0.6-33.9c-0.2-5,1.4-6.7,6.6-5.8c0.5,7,0.6,13.9,0.8,21.3c-0.6,1.5-1.9,1.3-2.8,2.2c-0.2,1.3-0.2,2.3-0.2,3.8
	C203.2,247.2,203.4,247.3,203.8,247.7z"/>
<path class="st6" d="M283,248.5c0.6-0.3,1.1-0.1,1.8,0.3c2.2,2.6,1.7,5.6,1.8,8.3c0.1,24.4,0,48.8,0,73.7c0,0.8,0,1.1,0,1.9
	c-0.6,7.8,1,15.2-1.3,22.9c-0.8,0.7-1.2,1-2,1.4C283,321,283,285,283,248.5z"/>
<path class="st12" d="M213.1,263.3c1.4-1.4,1.7-0.5,1.8,0.6c0.1,0.6,0,1.4-0.8,1.5C212.9,265.4,213.2,264.4,213.1,263.3z"/>
<path class="st27" d="M213.1,248.2c0.1-0.2,0.2-0.2,0.7-0.2C213.7,248.1,213.5,248.2,213.1,248.2z"/>
<path class="st22" d="M266,401c0,11.8-0.1,23.2,0.1,34.5c0.1,3.4-0.8,4.7-4.4,4.6c-12.2-0.2-24.3-0.2-36.5,0c-3.4,0-4.2-1.2-4.2-4.3
	c0.1-16.2,0.1-32.3,0-48.5c0-3.2,0.8-4.4,4.2-4.4c12.3,0.2,24.7,0.2,37,0c3.1,0,4.1,1.1,3.9,4.1C265.9,391.5,266,396,266,401z"/>
<path class="st6" d="M283,363.5c0.6-0.3,1.1-0.1,1.8,0.3c1.9,2.2,1.8,4.5,1.8,6.9c0,29.6,0,59.2,0,88.8c0,2,0.1,4-1.3,6.2
	c-0.7,0.4-1.2,0.4-1.9,0.4C283,432,283,398,283,363.5z"/>
<path class="st22" d="M265.6,212.8c1.2,4.9-0.4,6.6-5.4,6.4c-11.5-0.4-23-0.3-34.5,0c-3.8,0.1-4.8-1.2-4.7-4.9c0.2-16,0.1-32,0-48
	c0-3.2,0.8-4.4,4.2-4.4c12.3,0.2,24.7,0.2,37,0c3.1,0,4,1.1,3.9,4.1c-0.2,7-0.1,14-0.1,21.5c-0.4,0.8-0.9,1-1.8,0.8
	c-2.8-2.2,0.4-6-3-7.9c-3,0.1-5.6,0.1-8.2,0.1c-6.3,0-6.4,0.2-6.5,6.3c0,3.1,0,6.2-0.1,9.8c0.1,2.4,0.1,4.5,0,6.9
	c0.2,13.8-1.6,11.9,11.4,12.1c0.8,0,1.6,0,2.9,0.1c1.5,0.1,2.5,0.5,3.4,1.1c-0.9-0.8-1.1-1.8-0.7-3.3
	C264.2,212.6,264.7,212.5,265.6,212.8z"/>
<path class="st27" d="M302.7,249.4c1.1-5.1-0.6-6.8-5.5-6.5c-6.7,0.4-13.5,0.1-20.7,0.1c1.4-1.8,3.7-0.6,6.2-1
	c1.1-0.6,1.6-1.4,2.9-1.9c3.9-0.9,7.4-0.6,10.9-0.6c3.6,0.1,5.2-1.4,5.1-5c0-3.6-0.3-7.3,0.3-10.9c0.2-1,0.4-2.2,1.5-2.3
	c1.6-0.2,1.7,1.4,1.9,2.4c0.6,3.5,0.4,7,0.3,10.4c-0.1,3.8,1.5,5.2,5.2,5.5c13.6,0.8,27.2-0.7,40.8-0.1c4.9,0.2,10-0.8,15.1,1.2
	c-0.3,3.4-2.8,2.2-4.5,2.3c-17.6,0.1-35.2,0.2-52.8,0c-4,0-6,0.9-5.3,5.6c2.5,3.7,1.5,7.5,1.6,11c0.1,4,0.4,8-0.3,11.9
	c-0.2,1.1-0.5,2.5-1.9,2.4c-1-0.1-1.5-1.4-1.5-2.3C301.4,264.3,300.5,257,302.7,249.4z"/>
<path class="st6" d="M285.3,240.6c-0.8,0.7-1.2,1-2,1.3c-0.3-28-0.3-56-0.4-84.5c0.3-1.8-0.6-3.5,1.6-4.4c2.3,1.8,2,4.2,2,6.5
	c0.1,24.9,0,49.9,0,74.8C286.6,236.4,286.7,238.4,285.3,240.6z"/>
<path class="st3" d="M265.8,189.4c9.6,8.3,9.3,13.6,0.6,22.4c-1.6-0.9-1.8-2.4-1.7-3.9C264.9,201.9,263.7,195.7,265.8,189.4z"/>
<path class="st7" d="M266.1,188.8c0,7.6,0,14.9,0,22.7c0,0.6,0,0.8-0.1,1.3c-0.4,0.3-0.9,0.3-1.6,0.3c-1-0.5-1.5-1.2-1.5-2.1
	c-0.2-7.5-1.1-14.9,0.9-22.7c0.8-0.3,1.2-0.3,1.9-0.3C266,188.2,266,188.3,266.1,188.8z"/>
<path class="st27" d="M273.7,242.7c-2.7,0.3-5.8,0.3-9.3,0.3C267.1,241.2,270.3,242,273.7,242.7z"/>
<path class="st27" d="M203.5,243c-0.5-1.6,0.5-2,2.3-2c0.6,0.4,0.9,0.9,1.2,1.6C206,243,204.9,243,203.5,243z"/>
<path class="st11" d="M302.5,249c0.5,7.8,0.5,15.6,0.6,23.4c0,0.1,0.2,0.3,0.9,1.2c0-8.5,0-16.1,0-24.2c21.3-0.5,42.7-0.5,64.4-0.4
	c1.3,1,1,2.2,1,3.4c0,34.2,0.1,68.5-0.3,103.2c-27.9,0.4-55.6,0.4-83.7,0.5c-0.5-7.4-0.5-14.7-0.5-22.5c0.1-0.6,0.3-0.8,0.2-1.2
	c-0.2-27.6-0.2-55-0.2-82.8C290.7,249,296.4,249,302.5,249z"/>
<path class="st11" d="M285.4,466c-0.5-33.7-0.5-67.4-0.4-101.5c25.8-0.5,51.7-0.4,77.5-0.6c4.3,0,5.7,1,5.6,5.5
	c-0.2,31.3-0.1,62.6,0,94c0,2.6-0.9,2.6-2.8,2.6c-5.2-0.1-10.3,0-16,0c-2.3-2.1-1.8-4.7-1.8-7.2c0-22.6,0-45.2,0-67.9
	c0-6.4-0.1-6.5-6.3-6.5c-10.1,0-20.3,0.1-30.4-0.1c-4.2-0.1-5.5,1.5-5.5,5.5c0.1,22.8,0.1,45.6,0,68.4c0,2.3,0.3,4.7-1,7.3
	C298.1,465.9,292,466,285.4,466z"/>
<path class="st4" d="M347.3,465.5c-6.3,0.4-12.4,0.5-18.9,0.5c-2.2-1.8-1.9-4-1.9-6.2c0-17.8,0-35.6,0-53.4c0-6.8,1-7.8,7.8-7.8
	c16.1-0.1,13.5-0.8,13.6,13.6c0.1,15.6,0,31.3,0,46.9C348,461.1,348.2,463.1,347.3,465.5z"/>
<path class="st4" d="M325.4,465.5c-5.7,0.4-11,0.5-16.9,0.5c-1.7-1.3-1.9-3-1.9-4.7c0-19.2-0.1-38.5,0-57.7c0-1,0.2-2,0.8-3.3
	c5.2-2.8,10.3-1.8,15.4-1.3c3.4,0.3,3.6,3.4,3.6,6.1c0.1,8,0,15.9,0,23.9c0,10.1,0,20.2,0,30.3C326.5,461.2,326.7,463.2,325.4,465.5
	z"/>
<path class="st22" d="M325.4,465.9c-0.4-20.3-0.5-40.5-0.3-60.7c0-4.1-1.1-5.7-5.3-5.3c-3.6,0.3-7.3,0.1-11.4,0.1
	c-1.9,1.9-1.4,4.2-1.4,6.3c0,17.6,0,35.3,0,52.9c0,2,0.3,4-0.8,6.3c-0.7,0.4-1.1,0.4-1.8,0.4c-0.3-26.3-0.3-52.6-0.5-78.9
	c0-3.4,1.3-4.2,4.4-4.1c12,0.1,24,0.2,35.9,0c3.7-0.1,4.8,1,4.8,4.8c-0.2,25.8-0.1,51.6-0.1,77.8c-0.5,0.5-0.9,0.5-1.6,0.4
	c-0.3-20.2-0.5-40.4-0.2-60.5c0.1-4.5-1.3-5.9-5.7-5.5c-3,0.3-6,0.3-9,0c-3.5-0.3-4.6,1.1-4.5,4.5c0.1,20.2,0.1,40.3,0,60.9
	C327.2,465.9,326.5,465.9,325.4,465.9z"/>
<path class="st28" d="M306.3,466c-0.3-20.3-0.3-40.5-0.2-60.8c0-1.7-0.9-3.7,1.5-5.1c0.4,21.6,0.4,43.2,0.5,65.4
	C307.6,466,307.1,466,306.3,466z"/>
<path class="st16" d="M369.1,356.2c-0.1-35.6-0.1-70.9-0.1-106.7c0.2-0.7,0.4-1,0.9-1.4c0.2,35.9,0.2,71.9,0.2,108.4
	C369.7,356.8,369.5,356.6,369.1,356.2z"/>
<path class="st19" d="M107.6,465.6c-1.3,0.8-2.6,1.1-4.3,1.4c-3.9-5.2-3.5-11.4-4.7-17.7c0.5-7.4,1.6-14.2,3.1-21
	c2.4-11.3,4.7-22.7,6-34.2c0.1-0.8,0.3-1.6,1.1-2.7c3.3-0.4,6.4-0.4,9.9-0.4c0.5,0.3,0.5,0.6,0.6,1.2c1.6,2.9,1.3,5.5-0.1,8.4
	c-3.3,15.8-7.2,31.1-9.2,46.7C109.3,453.3,108.4,459.2,107.6,465.6z"/>
<path class="st7" d="M119.3,400.9c-0.2-2.4-0.1-5,0.1-7.9c3.6-3.8,4.3-8.8,6.6-12.9c1.2-2.2,2.2-4.6,3.6-7.7
	c0.8,5.5-0.5,10.1,1.2,14.8c-1.4,4.1-2,8.1-2.9,12.6C124.7,397.9,121.9,396.7,119.3,400.9z"/>
<path class="st18" d="M108.6,391c0.1,13.6-3.5,26.6-6,39.8c-1.1,6-1.9,12-2.9,18.5c-0.4,5.7,0.3,11-2.3,16.3
	c-1.4,0.8-2.5,1.5-4.2,1.3c-1.2-5-2-10-3-15.4c-0.3-9.7-0.4-19.1-0.6-28.9c0.7-10.9,0.5-21.3-0.1-32.2c2.7-0.9,5.6,0.4,8-2.4
	c1.3-1.5,1.6,1.4,2.4,1.8C102.5,391,105.3,391.2,108.6,391z"/>
<path class="st21" d="M303,128.4c0.7,0.1,1,0.7,0.1,1.5C302.9,129.5,302.9,129.1,303,128.4z"/>
<path class="st12" d="M195.6,166.7c0.4,39.6,0.4,78.9,0.4,118.2c0,1.9,0.5,4.2-2.6,5c-1.3-0.9-1.3-2-1.2-3.2
	c1.1-10.5-0.2-21.1,0.8-31.7c0-0.4-0.1-0.6-0.5-0.8c0.5,5.8-7.4,15.8-14.8,18.3c-1.5-0.6-1.5-1.9-2.2-2.9c-0.6,2.1,0,4.5-2.1,6.4
	c-1.2,0.8-2.1,1.2-3,1.5c-7.1,2.4-8.5,1.5-8.5-6.1c0-31.9,0-63.9,0-95.8c0-8.2,2-10.3,10.4-10.1C180,165.8,187.7,164.5,195.6,166.7z
	"/>
<path class="st3" d="M176.9,272.2c9-3.7,12.4-11.7,16.8-19.2c-0.2,12.1,1.5,24.1-0.6,36.5c-8.7,0.4-17.3,0.3-26,0.5
	c-4.2,0.1-6.1-1.5-6.1-5.8c0.1-38.5,0-77,0-115.4c0-3.3,1-4.9,4.5-4.9c8.7,0.2,17.3,0,26,0c1.8,0,3.8-0.1,4.4,2.7
	c-8.3,0.4-16.6,0.4-24.9,0.4c-6.4,0-8,1.6-8,7.9c0,32.7,0.1,65.5-0.1,98.2c0,4.4,1.5,5,5.1,3.8c1.7-0.6,3.5-1.2,5.5-1.8
	c1.9,1.9,3.1,4.6,6.7,3.4C176.8,277.7,175,276,176.9,272.2z"/>
<path class="st23" d="M198.7,259.3c0.1,0.9,0,2.1-0.4,3.5C198.1,261.8,198.3,260.7,198.7,259.3z"/>
<path class="st11" d="M285.5,241c-0.5-29-0.5-58-0.5-87.5c0-0.5,0-0.5,0.1-0.5c0.1-0.2,0.3-0.3,0.2-0.7c5.2-5.9,9.8-12.5,17.4-16.3
	c0.7-0.1,1-0.1,1.6,0.1c1.6,2.6,1.2,5.2,1.3,7.7c0.2,6.3,0.4,6.7,6.9,6.7c15.3,0,30.6,0,45.9,0c2.3,0,4.7-0.1,7.4,0.4
	c1.1,0.3,1.6,0.6,2.5,1.3c0.6,0.5,0.9,0.7,1.3,1.4c-0.6,26,0.1,51.5-0.1,77.1c0,3.2,0.1,6.3-0.3,9.9c-0.7,0.4-1.1,0.4-1.9,0.4
	c-12,0-23.6-0.2-35.3,0.1c-7.8,0.2-15.6,0.3-23.5,0c-3.4-0.1-4.8-0.9-4.6-4.5c0.3-4.8,0.1-9.6-0.9-14.4c0,4.6-0.3,9.3,0.1,13.9
	c0.3,4.1-1.3,5.2-5.1,5C294,240.8,290,241,285.5,241z"/>
<path class="st21" d="M369.2,152.8c-0.2,0.2-0.7,0.2-0.9,0.2c-0.4-0.3-0.6-0.5-1.1-0.8c-19.6-0.2-39-0.3-58.4-0.1
	c-3.6,0-5.2-0.8-4.9-4.7c0.3-3.5,0.1-7,0.1-10.9c-0.5-0.9-0.5-1.5-0.8-2.2c4.6-4.8,9.4-9.4,14.5-14.1c6.6,1.5,13.1,2,19.9,1.1
	c1.4,0.1,2.3,0.6,3,1.3c9.3,9,18.1,18.4,28,27.2c0.3,0.7,0.3,1.1,0.4,1.9C369.2,152.2,369.3,152.4,369.2,152.8z"/>
<path class="st25" d="M339.3,121.9c-7.2,1-14.2,3.2-21-1.7c-0.3-1.6-1.3-2.5-2.2-3.8c3.1-3,6.7-5,5.1-10.6c-1.1-3.8,2.4-6.8,6.5-6.7
	c4.7,0.1,7.9,2.8,7.1,6.9c-0.6,3.1,0,5.1,2.4,6.8c2,1.4,1.5,3.9,2.7,6.1C340.8,120.1,340.5,120.9,339.3,121.9z"/>
<path class="st27" d="M303,134.3c0.3,0.1,0.6,0.6,1,1.4c-0.2,0.3-0.3,0.3-0.7,0.3C303,135.6,303,135.1,303,134.3z"/>
<path class="st27" d="M285,152.3c0.1,0,0.2,0.3,0.2,0.6C285,153,285,152.5,285,152.3z"/>
<path class="st14" d="M298.3,76.7c-7.6,0.3-14.9,0.3-22.3,0.2c-2.1,0-5.2,1.1-4.9-2.9c0.3-3.5,3.3-5.5,5.8-4.7
	c5.8,1.9,5.2-1.1,5.1-4.9c-0.1-5.2,4.4-11.3,9.2-13.1c6-2.3,11.4-0.9,16.3,2.8c1,0.7,1.4,1.8,1.4,3.4c-0.9,3-0.7,5.9-1.6,8.5
	C305.8,70.7,303.5,74.7,298.3,76.7z"/>
<path class="st0" d="M298.5,77c-0.2-2.8,2.8-2.4,4-4.2c2.3-3.3,4.3-6.6,4.5-10.8c0.1-1.4-0.6-3.1,1.6-4c0.4,0,0.4,0,0.4,0
	c1.8,1.6,1.4,4.4,3.7,6c0.8,0,1.2,0,2,0.1c2.9,1.6,5.9,2.6,7.2,5.8c0.8,1.9,2.2,1.5,3.9,0.5c0.7-0.2,1.1-0.2,1.9-0.2
	c2,1.8,4.2,3.3,3.6,6.6C320.3,77,309.6,77,298.5,77z"/>
<path class="st14" d="M325.6,70c-1.2,3.2-3,4.5-4.6,0.2c-1.1-2.9-4.1-3.5-5.9-5.9c2.9-0.4,5.3,0.9,6.8,3.4
	C322.7,69.2,323.6,70.1,325.6,70z"/>
<path class="st14" d="M312.9,63.7c-0.1,1.5-0.6,3-1.7,1c-1-1.8-1.4-3.9-2.1-6.3C312,58.6,311.1,61.8,312.9,63.7z"/>
<path class="st14" d="M331.3,76.7c0.3-2.6-2.6-3.8-3.3-6.4C331.7,70.8,332.6,73.1,331.3,76.7z"/>
<path class="st26" d="M400,275.1c9.2,0,17.8,0.2,26.5-0.1c4.3-0.2,5.8,0.9,5.7,5.5c-0.3,12.8-0.2,25.7-0.1,38.5
	c0,3.5,0.5,6.9,0.8,10.4c0.2,2.4-0.6,3.7-3.3,3.6c-13-0.1-26-0.1-39,0c-2.5,0-3.5-0.8-3.5-3.4c0.1-17,0.1-34,0-51
	c0-2.6,0.9-3.6,3.5-3.5C393.5,275.2,396.5,275.1,400,275.1z"/>
<path class="st22" d="M424.5,382.9c0.9,0,1.3,0.1,2.1,0.2c0.7,0.5,0.9,1,0.5,1.9c-3.1,2-6.3,1.1-9.3,1.5c-1.8,0.2-4-0.9-5.3,1.7
	c-0.2,7.4-0.1,7.4,6.6,7.4c1.2,0,2.3-0.1,3.5,0c3.3,0.2,6-0.2,6.3-4.4c0.1-1.3,0.7-2.6,2.8-2.4c0.6,0.7,0.9,1.2,1.2,1.9
	c0,14.9-0.1,29.5,0.1,44.2c0.1,4.2-1.3,5.3-5.4,5.2c-11.8-0.3-23.6-0.2-35.4,0c-3.8,0.1-5.2-0.8-5.2-4.9c0.2-15.8,0.2-31.6,0-47.4
	c-0.1-4.1,1.4-5,5.2-4.9C402.8,383.1,413.4,383,424.5,382.9z"/>
<path class="st22" d="M421,162c11.1,0,11.1,0,11.1,10.8c0,13.3,0,26.6,0,39.9c0,6.3,0,6.3-6.6,6.3c-12,0.1-24,0-35.9,0.3
	c-2.3,0.1-2.5-0.8-2.5-2.5c0-17.3,0-34.6,0-51.9c0-3,1.8-3,4-3C400.8,162,410.7,162,421,162z"/>
<path class="st3" d="M370.8,152.3c23.6-0.3,46.8-0.3,70.1-0.3c1.8,0,3.6,0.2,5.8,0.6c0.3,1.4,0.3,2.5,0.3,4
	c-25.3,0.4-50.6,0.4-76.3,0.5C368.9,155.4,369.7,154,370.8,152.3z"/>
<path class="st16" d="M370.7,152c0,1.4-0.3,2.9-0.6,4.7c0,28.4,0,56.4-0.1,84.9c-0.2,0.6-0.4,0.7-0.8,0.6c-0.2-0.2-0.2-0.7-0.2-0.9
	c0-29.2,0-58.3,0-87.7c0-0.6,0-0.8,0.1-1.2C369.5,152,369.9,152,370.7,152z"/>
<path class="st27" d="M369.2,242.2c0-0.2,0.2-0.2,0.6-0.2c0.6,0.1,0.8,0.3,1.1,0.8C370.4,242.8,369.9,242.6,369.2,242.2z"/>
<path class="st22" d="M491.5,270.1c-8.4-13.8-6.9-28.9,3.7-38.4c10.7-9.7,25.8-10.7,37.8-2.1c0.8,1.9,2.4,3.4,0.9,5.6
	c-0.8,0.5-1.3,0.5-2.2,0.5c-1.8-0.6-3-1.6-4.3-3c-6.3-6.1-17.3-4.8-23.5-1.4c-1.6,0.9-3.1,1.9-4.7,3.4c-0.4,0.4-0.6,0.6-1,1
	c-7,6.7-8.3,14.9-7.5,23.7c-0.5-5.8-0.2-11.5,2.6-16.8c1-1.9,1.9-4.5,5.3-3.3c1.4,6,0.6,11.7,0.7,17.8c-0.1,1.2-0.3,2-0.8,3.2
	c-0.3,0.6-0.4,0.8-0.7,1.3c-1.7,2.3-3.4,4.2-4.6,6.8c-0.2,0.5-0.4,0.7-0.7,1.2C492.1,270.1,491.9,270.2,491.5,270.1z"/>
<path class="st5" d="M491.3,270.3c0.1-0.3,0.3-0.3,0.8-0.4c0.8-0.3,1.3-0.5,2.2-0.4c8.1,2.8,15.8,3.4,23.8-0.3
	c6.3-1,12.3,0,18.7-0.8c0.7,0,1,0,1.7,0.2c0.6,0.4,0.8,0.6,0.8,1.3c-7.8,14.2-30.6,17.3-42.7,6.2
	C494.7,274.3,493.1,272.4,491.3,270.3z"/>
<path class="st4" d="M539.4,270c-0.3,0-0.3-0.2-0.3-0.7c-0.2-0.4-0.3-0.6-0.8-0.9s-0.6-0.4-1-0.8c-1.5-2.9-3.8-5-5-8.1
	c-0.5-1.8-0.4-3.3-0.1-5.2c1.7-5.9,2.4-11.4,0.8-17.4c-0.2-0.6-0.2-0.9,0-1.5c2-1.8-0.3-3.3,0.2-5.1
	C546.1,239.8,548.9,256.3,539.4,270z"/>
<path class="st5" d="M502.9,305c12,6.7,16.7,24.4,8.9,37.8c-10.9,18.8-34.8,20.6-49.4,3.4c1.8-1.8,3.8-0.8,5.6-0.2
	c8.6,2.9,16.5,0.9,24.4-3.5c1.5-0.7,2.8-0.8,4.4-0.6c1.9,0.5,3.5,0.2,5.3,0.3c0.5,0.1,0.7,0.2,1.1,0.4c0.9,0.4,1.2,0.1,1.4-0.9
	c-0.1-8.9,0.2-17.5-0.2-26.4c-0.2-0.6-0.3-0.8-0.6-1.3c-1-1.7-2.3-2.8-3-4.6C501.7,308,502.3,306.6,502.9,305z"/>
<path class="st22" d="M502.9,304.6c-0.5,1.6,2.7,4.2-1.6,4.4c-0.8,0.1-1.3,0.1-2-0.4c-8.1-7.7-25.3-5.4-31.3,3.5
	c-0.6,0.9-1,1.5-1.7,2.4c-5.9,5.7-5.5,12.7-5.2,19.6c-0.1-4-0.6-8,0.8-11.8c0.7-2,1.2-4.4,4.6-3c1.4,8,1.2,15.6,0.3,23.2
	c0,0.3-0.2,0.8,0,0.8c0.3,0-0.1-0.2,0.3-0.6c5.7-2.1,11.3-0.9,17.3-1.2c3,0,5.5-0.3,8.3,1.1c-6.9,6.2-15.1,7.4-24,5.1
	c-1.9-0.5-3.8-1.2-6-1.8c-8.9-12.2-7.7-28,2.5-38.4C475,297.6,490.7,296.2,502.9,304.6z"/>
<path class="st6" d="M466.9,459.2c0.2-0.1,0.6,0.1,1.1,0.5C467.7,459.9,467.3,459.7,466.9,459.2z"/>
<path class="st4" d="M427.1,385.3c-0.1-0.7-0.1-1.1-0.1-1.8c4.3-1.3,5.7,0.7,5,5.2c-1.8,0.6-2.2,1.9-2,3.3c0.8,4.9-1.9,5.5-5.8,5.2
	c-1.6-0.2-3.3,0-5,0c-9.3-0.1-8.2,1.3-8.2-8.6c3.3-2.8,7.1-1.4,10.7-1.8c1.8-0.2,3.6,0.2,5.4-0.3c0.1,0,0.3-0.2,0.3-0.4
	C427.4,385.9,427.3,385.7,427.1,385.3z"/>
<path class="st0" d="M97.5,466.1c0.5-5.3,1.2-10.5,2.1-16c1.2,5.2,2.3,10.6,3.4,16.5C100.7,470.3,99.4,467,97.5,466.1z"/>
<path class="st3" d="M361.2,121.7c-0.8-0.2-1.4-0.7-2.1-1.5c1.3-1.1,1.2-4.6,2.6-3.7c3.6,2.1,6.6-1.9,9.8,0c1.1,0.7,1.7,1.9,1.2,2.9
	c-1.4,3-1.8-0.7-2.2-0.5C367.8,120.7,364.3,119.9,361.2,121.7z"/>
<path class="st3" d="M339.1,122.3c0.2-1.1,0.5-1.8,0.9-2.9c0-0.3,0.5-0.3,0.8-0.4c9.1,8.7,18,17.4,26.9,26.1
	c1.2,1.2,1.4,2.6,1.3,4.5c-3.5-0.7-5.9-3.3-8.3-5.6C353.4,137.1,346.4,129.8,339.1,122.3z"/>
<path class="st7" d="M438.5,108.6c-1.8-1.2-2.8-2.5-2.3-4.3c0.5-1.9,1.7-3.2,3.8-3.2c2,0,2.8,1.2,3,3.1
	C443.3,107.4,442,108.9,438.5,108.6z"/>
<path class="st29" d="M410.9,119.6c0.3-0.3,0.7-0.4,1.1-0.4c0.1,0,0.2,0.2,0.3,0.3C411.9,119.6,411.5,119.7,410.9,119.6z"/>
<path class="st3" d="M480,194.6c-1.7,0-4.2,1.3-5.1-1.2c-1-2.9,0.9-4.8,2.4-7.1C479.3,188.8,480.3,191.3,480,194.6z"/>
<path class="st3" d="M477.2,180.8c0.6-2.2,1.1-4.1,3-5.7c1.4,2.6,4.3,4.7,1.5,7.7C479.7,184.9,478.2,183.1,477.2,180.8z"/>
<path class="st3" d="M484.7,196.9c0.2,2.2,0.7,4.7-2.3,5c-2.3,0.3-2.5-1.4-2.6-3.5c0-1.1,0.1-1.9,0.2-3c0-0.4,0-0.3,0-0.3
	C483,191.5,483.3,195.1,484.7,196.9z"/>
<path class="st3" d="M474,184.7c-0.9,1.9-2.1,2.6-3.7,1.6c-1.4-0.8-1.4-2.3-1.1-3.5c0.4-1.7,1.3-3.3,2.2-5.5
	C473.2,179.7,474.3,181.7,474,184.7z"/>
<path class="st4" d="M501.8,157.7c-0.7,0.1-1.5-0.1-2.6-0.5C499.9,157.2,500.7,157.3,501.8,157.7z"/>
<path class="st4" d="M502.9,158.8c-0.2,0-0.4-0.2-0.8-0.6C502.3,158.2,502.5,158.4,502.9,158.8z"/>
<path class="st8" d="M64,472c-0.1-0.1-0.2-0.3-0.4-0.5c0.1,0.1,0.2,0.1,0.3,0.3C64,472.1,64,472,64,472z"/>
<path class="st4" d="M238.7,293c3.1-0.1,3.3,1.7,3.3,3.6c0,10,0,20,0,29.9c0,2.2-0.5,3.5-3,3.4c-4.3-0.1-8.6-0.1-13,0
	c-2.1,0-3-0.8-3-2.9c0-10.3,0.1-20.6,0-30.9c0-2.4,1-3.2,3.3-3.2C230.3,293.1,234.3,293,238.7,293z"/>
<path class="st4" d="M262.3,329.5c-4.6,0.4-8.9,0.3-13.2,0.5c-2.9,0.1-4.2-0.7-4.2-3.9c0.2-9.8,0.2-19.6,0-29.4
	c-0.1-3.2,1.3-4,4.2-3.8c4,0.2,8,0,12.4,0c1,0.7,1.4,1.4,1.4,2.3C262.9,306.6,263.5,317.9,262.3,329.5z"/>
<path class="st5" d="M241.6,279.8c0.3,10.2,0.3,10.2-9.5,10.2c-9.2,0-9.2,0-9.1-9.6C229,277.4,235.1,278.2,241.6,279.8z"/>
<path class="st4" d="M262.4,289.5c-4.1,0.5-7.9,0.2-11.6,0.6c-4.5,0.4-6.5-1-5.8-5.7c0.2-1.1,0-2.3,0-3.9c5-3.1,10.2-1.9,15.4-1.5
	c1.6,0.1,2.5,1.5,2.5,3.2C263,284.5,263.2,286.8,262.4,289.5z"/>
<path class="st28" d="M262.5,289.8c-0.6-9.8-0.6-9.8-10.7-9.8c-2,0-3.9,0-6.4,0c-0.6-2.1,0.3-3,2.4-3c2.7,0.1,5.3,0,8,0
	C264.4,277.1,266.7,281.1,262.5,289.8z"/>
<path class="st28" d="M262.4,329.9C262,318,262,306,262,293.5c1.8-0.3,2,0.9,2,2.3c0,10.7,0,21.3,0,32
	C264,328.7,263.7,329.5,262.4,329.9z"/>
<path class="st28" d="M242,279.6c-6,0.4-12,0.4-18.5,0.3c-0.5-1.4-0.4-2.8,1.4-2.9c5.1,0,10.3,0,15.4,0
	C241.6,277.2,241.9,278.1,242,279.6z"/>
<path class="st27" d="M203.9,247.7c-0.2,0.2-0.5,0-0.7-0.5C203.4,247.1,203.6,247.3,203.9,247.7z"/>
<path class="st27" d="M285,332.2c0.1,0,0.2,0.3,0.2,0.7C285,332.8,285,332.7,285,332.2z"/>
<path class="st4" d="M224.4,437.8c-1.8-1.3-1.4-2.9-1.4-4.3c0-9.6,0.1-19.3-0.1-28.9c-0.1-3.4,0.8-4.9,4.4-4.6c4,0.3,8,0.1,12,0
	c2.4-0.1,3.7,0.6,3.7,3.3c-0.1,10.5-0.1,20.9,0,31.4c0,2.8-1.3,3.4-3.7,3.3C234.5,437.9,229.7,437.9,224.4,437.8z"/>
<path class="st4" d="M262.3,437.5c-4.6,0.4-8.9,0.4-13.2,0.5c-2.9,0.1-4.2-0.6-4.2-3.9c0.2-10.1,0.1-20.3,0-30.4
	c0-2.7,0.8-3.9,3.7-3.8c4.1,0.2,8.3,0.1,12.9,0.1c0.9,0.6,1.3,1.2,1.3,1.8C262.9,413.6,263.4,425.4,262.3,437.5z"/>
<path class="st4" d="M242.5,387.6c0.6,11.6,1.1,9.1-8.3,9.4c-1,0-2,0-3,0c-9.2-0.2-8.2,1.4-8.2-8.6
	C229.3,385.4,235.7,386.3,242.5,387.6z"/>
<path class="st4" d="M262.3,396.6c-4.1,0.4-7.9,0.2-11.6,0.5c-4.5,0.4-6.5-1.1-5.7-5.7c0.1-0.8,0-1.6,0-2.9c5-3.1,10.3-1.9,15.4-1.4
	c1.9,0.2,2.5,1.9,2.5,3.7C262.9,392.5,263.2,394.4,262.3,396.6z"/>
<path class="st28" d="M262.5,437.9c-0.4-12.2-0.4-24.6-0.4-37.3c1.9-0.4,2,0.9,2,2.3c0,11,0,21.9,0,32.9
	C264,436.7,263.8,437.4,262.5,437.9z"/>
<path class="st28" d="M262.4,396.9c-0.4-8.9-0.4-8.9-9.6-8.9c-2.3,0-4.6,0-7.4,0c-0.8-2.5,0.6-3.1,2.8-3c4,0.1,7.9,0.2,11.9,0
	c3.1-0.2,4.4,1,3.9,4C263.6,391.6,265.3,394.5,262.4,396.9z"/>
<path class="st28" d="M242.9,387.5c-6.3,0.4-12.6,0.5-19.4,0.5c-0.5-1.4-0.6-2.9,1.4-2.9c5.6,0,11.2,0,16.8,0.1
	C242.6,385.2,242.9,386.2,242.9,387.5z"/>
<path class="st4" d="M243,185.1c0,9.6-0.1,18.8,0.1,27.9c0,3-1,4.2-4,4c-4-0.2-8-0.2-12,0c-2.9,0.1-4.2-0.8-4.1-3.9
	c0.2-10.1,0.1-20.3,0-30.4c0-2.8,1-3.9,3.8-3.7c3.5,0.2,7,0.3,10.5,0C241.7,178.5,243.8,179.9,243,185.1z"/>
<path class="st2" d="M245.3,204.3c-0.3-2.4-0.3-4.4-0.3-6.8c1.3-2.3,2.2-4.5,3.7-6.3c3.9-4.7,7.4-5.6,13.8-2.9
	c0.8,8,0.4,15.5,0.4,23.5c-3.9,3.4-8.6,3.3-12.1,0.1C248.4,209.9,246.8,207.4,245.3,204.3z"/>
<path class="st4" d="M262.3,187.6c-8.5-1.7-12.5,3.9-16.9,9.3c-0.3-4.7-0.3-9.5-0.4-14.3c-0.1-2.8,1-3.8,3.8-3.7
	c4.1,0.2,8.3,0.1,12.9,0.1C263.6,181.7,263,184.5,262.3,187.6z"/>
<path class="st4" d="M242.5,166.6c0.6,9.4,0.6,9.4-8.2,9.4c-1,0-2,0-3,0c-9.3-0.2-8.2,1.4-8.3-8.6
	C229.3,164.4,235.7,165.3,242.5,166.6z"/>
<path class="st4" d="M262.3,175.6c-4.1,0.4-7.9,0.1-11.6,0.5c-4.5,0.4-6.4-1.2-5.7-5.7c0.1-0.8,0-1.6,0-2.9c5-3.1,10.3-2,15.4-1.4
	c1.9,0.2,2.5,1.9,2.5,3.7C262.9,171.6,263.2,173.4,262.3,175.6z"/>
<path class="st5" d="M245,204.4c1.6-0.5,2.3,0.9,2.8,1.9c2.8,5.5,7.2,7.6,13.7,6.6c1.4,0.9,1.4,2,0.8,3.6c-4.5,0.4-8.8,0.3-13.1,0.5
	c-3.2,0.2-4.5-1-4.3-4.2C245.2,210.2,245,207.5,245,204.4z"/>
<path class="st28" d="M262.4,216.9c-0.3-1.1-0.4-2.1-0.4-3.5c0-8.4,0-16.4,0-24.9c0-3.1,0-5.8,0.1-8.9c1.1-0.4,2.4-0.9,2.2,1.2
	c-0.2,2.1-0.1,4.3-0.2,6.8c0,8.5,0,16.5,0,25.1C263.2,214.2,266.1,216.7,262.4,216.9z"/>
<path class="st28" d="M262.4,175.9c-0.4-8.9-0.4-8.9-9.6-8.9c-2.3,0-4.6,0-7.4,0c-0.8-2.5,0.7-3,2.8-3c3.9,0.1,7.9,0.2,11.8,0
	c3.1-0.2,4.4,1.1,3.9,4C263.6,170.6,265.3,173.6,262.4,175.9z"/>
<path class="st28" d="M242.9,166.5c-6.3,0.4-12.6,0.5-19.4,0.5c-0.5-1.4-0.5-2.9,1.4-2.9c5.6,0,11.2,0,16.8,0.1
	C242.6,164.2,242.9,165.2,242.9,166.5z"/>
<path class="st26" d="M304,317c0-12.8,0.1-25.1-0.1-37.4c0-3.4,0.9-4.6,4.5-4.6c12.1,0.2,24.3,0.2,36.4,0c3.3,0,4.3,1,4.3,4.3
	c-0.1,16.5-0.1,32.9,0,49.4c0,3.2-0.9,4.4-4.2,4.3c-12.3-0.2-24.6-0.1-36.9,0c-3.1,0-4.1-1-4-4C304.2,325.2,304,321.3,304,317z"/>
<path class="st4" d="M346.6,387.7c0.4,9.3,0.4,9.3-8.4,9.3c-0.7,0-1.3,0-2,0c-9.4-0.1-8.1,1.2-8.2-8.6
	C334,385.4,340.1,386.3,346.6,387.7z"/>
<path class="st4" d="M324.7,387.7c0.3,9.3,0.3,9.3-8.8,9.3c-2.3,0-4.6,0-7.4,0c-2-2.1-1.4-4.5-1.4-6.7s1.4-3.4,3.4-3.5
	C315.1,386.5,319.8,385.8,324.7,387.7z"/>
<path class="st28" d="M325.3,387.8c-4,0.2-7.9,0.5-11.6,0.2c-4.5-0.4-6.4,1.1-5.7,5.7c0.1,0.8,0,1.6,0,2.9c-4.3-2.3-1.7-6.5-1.7-9.8
	c0.1-3,3.5-1.5,5.4-1.7c3.6-0.2,7.3-0.1,11,0C324.2,385.1,326.4,384.6,325.3,387.8z"/>
<path class="st28" d="M347,387.6c-6,0.4-12,0.4-18.5,0.4c-0.5-1.3-0.6-2.9,1.4-2.9c5.3,0,10.7,0,16,0.1
	C346.7,385.2,346.9,386.3,347,387.6z"/>
<path class="st24" d="M173.9,252.1c0.3-2-0.8-4.2,1.3-4.8c2.5-0.7,5.2-0.6,7.8,0.1c0.3,0.1,0.6,0.8,0.6,1.2c0,0.7-0.6,1.1-1.3,1.2
	c-1.6,0.4-3.5-0.5-4.9,0.8c0.1,0.5,0.1,0.7,0.2,0.8c1.4,1.5,4.8-0.6,5,1.9c0.2,2.7-2.8,1-4.3,1.7c-0.7,0.3-1.1,0.7-1.1,1.4
	c0,0.7,0.4,1.3,1.2,1.4c1,0.1,2,0.1,3,0.2c1.1,0.1,2.6-0.1,2.4,1.6c-0.1,1.3-1.4,1.1-2.3,1.2C174.3,261.9,173.9,261.4,173.9,252.1z"
	/>
<path class="st26" d="M179.3,212c-0.9,1.4-1,1.4,1.5,2.5c2,0.9,3.5,2,3.3,4.4c-0.2,2.1-1.3,3.5-3.2,3.9c-2.1,0.5-4.4,0.5-6-1.5
	c-0.6-0.8-1.3-1.7-0.4-2.6c0.8-0.8,1.5-0.1,2.1,0.4c1.3,0.9,3.2,1.7,3.8,0.1c0.8-2-1.6-2-2.9-2.5c-2.1-0.9-4.2-1.9-3.4-4.7
	c0.9-3,3.5-3.3,6.1-2.9c1.7,0.3,3.8,1.3,3.1,3.1C182.7,214.2,181,212.1,179.3,212z"/>
<path class="st22" d="M172.5,196.2c0.6-3.8,1.8-6.3,5.9-6.3c3.1,0.1,5.8,0.8,6.4,4.2c0.6,3.2,1,6.6-2.6,8.8c-2.9,1.7-5.4,1-7.7-1
	C172.9,200.5,172.6,198.5,172.5,196.2z"/>
<path class="st24" d="M179,228.1c1.8,0.2,3.7-0.7,4.5,0.9c1,1.9-1.5,1.7-2.1,2.6c-1.2,1.8-0.3,3.9-0.6,5.8c-0.2,1.6,1,4.2-1.8,4.4
	c-2.9,0.2-1.7-2.5-2-4.1c-0.5-2.6,1.6-6.1-3-7.2c-1.2-0.3-0.3-1.8,0.6-2.1C175.9,228.1,177.3,228.2,179,228.1z"/>
<path class="st14" d="M178.1,178.1c-3.4,0.9-0.9,4.1-3.5,5.9c-1.1-4.4-0.8-8.4-0.1-13.3c2.4,1.9,0.8,5.8,4.9,5.4
	c3.4-0.3,2.1-3.2,3.8-4.7c1.1,4,1.3,8,0.3,12.8C181.1,182.1,182.9,177.4,178.1,178.1z"/>
<path class="st24" d="M177.1,271.6c-0.5,3.7,0,6,4.2,5.5c1.1-0.1,2.6-0.1,2.3,1.6c-0.2,1.3-1.5,1.4-2.4,1.2
	c-2.8-0.7-7.7,2.4-7.3-4.4c0-2.4,0-4.4,0.1-6.4c0-1.1-0.3-2.7,1.3-2.8c2-0.1,1.5,1.7,1.7,2.9C177.1,269.9,177,270.5,177.1,271.6z"/>
<path class="st22" d="M338,219.1c-10,0.3-19.5-0.7-28.9,0.8c-3.8,0.6-5.2-0.7-5.1-4.8c0.3-16.1,0.2-32.3,0-48.5
	c0-3.4,0.8-4.7,4.4-4.6c12.2,0.2,24.3,0.2,36.5,0c3.3,0,4.3,1.1,4.2,4.3c-0.1,15.7-0.3,31.3,0.1,47c0.1,5-1.5,6.6-6.2,5.9
	C341.5,218.9,340,219.1,338,219.1z"/>
<path class="st27" d="M367.1,152.2c0.2-0.1,0.5,0.1,0.8,0.6C367.7,152.9,367.4,152.7,367.1,152.2z"/>
<path class="st17" d="M331.7,103.3c1.2,1.4,1.6,2.6,0.5,3.8c-1.1,1.2-2.3,1-3.5,0c-0.3-0.2-0.6-0.4-0.8-0.6c-1.4-1.2-3.8,2-4.6-0.9
	c-0.5-1.8,1.3-2.9,2.6-3.9C328.1,100.1,329.9,101.3,331.7,103.3z"/>
<path class="st4" d="M430,313c0,4.7-0.1,8.8,0,13c0.1,3-0.8,4-3.9,4.1c-15.1,0.5-15.1,0.6-15.1-14.3c0-6.3,0.1-12.6,0-18.9
	c-0.1-2.7,0.8-4,3.7-3.8c4,0.2,8,0.1,12,0c2.7-0.1,3.5,1.1,3.4,3.6C429.9,301.9,430,307.2,430,313z"/>
<path class="st4" d="M390.8,293.4c4.9-0.4,9.6-0.3,14.2-0.4c2.9-0.1,4.1,0.8,4.1,3.9c-0.2,9.8-0.2,19.6,0,29.3
	c0.1,3.2-1.4,3.9-4.2,3.8c-4.3-0.2-8.6,0-13.4,0c-0.9-0.5-1.3-1.1-1.3-1.8C390.1,316.7,389.5,305.3,390.8,293.4z"/>
<path class="st5" d="M429.7,279.7C430,290,430,290,420.2,290c-9.2,0-9.2,0-9.2-9.5C417,277.3,423.2,278.3,429.7,279.7z"/>
<path class="st4" d="M408.5,279.6c0.6,10.4,0.6,10.4-9.2,10.4c-2.5,0-4.9,0-7.9,0c-2-2.4-1.3-5.1-1.3-7.7c0-2.2,1.4-3.4,3.4-3.5
	C398.4,278.6,403.3,277.8,408.5,279.6z"/>
<path class="st28" d="M408.9,279.5c-4.1,0.4-8.3,0.8-12.5,0.4c-4.5-0.4-6.1,1.3-5.5,5.6c0.2,1.1,0,2.3,0,3.9
	c-3.9-2.8-1.8-7.2-1.6-10.9c0.2-2.8,3.6-1.4,5.5-1.5c3.3-0.2,6.6-0.1,10-0.1C406.6,277.1,408.3,277,408.9,279.5z"/>
<path class="st28" d="M390.6,293.1c0.4,11.9,0.4,24,0.4,36.5c-1.8,0.3-2-1-2-2.4c0-10.7,0-21.3,0-32
	C389.1,294.3,389.3,293.5,390.6,293.1z"/>
<path class="st28" d="M430.3,279.8c-6.3,0.3-12.3,0.2-18.8,0.2c-0.5-1.7-0.2-2.9,1.9-2.9c5.1,0,10.2,0,15.3,0
	C430.3,277.1,431.2,277.7,430.3,279.8z"/>
<path class="st4" d="M411,415c0-4.2,0.1-7.8,0-11.5c-0.1-2.5,0.8-3.8,3.4-3.5c0.3,0,0.7,0,1,0c14.6-0.3,14.6-0.3,14.6,14.3
	c0,6.6-0.1,13.3,0,19.9c0.1,2.7-0.8,3.9-3.7,3.8c-4-0.2-8-0.1-12,0c-2.7,0.1-3.5-1.1-3.4-3.6C411.1,428.1,411,421.8,411,415z"/>
<path class="st4" d="M390.7,400.5c4.9-0.4,9.6-0.3,14.2-0.5c2.9-0.1,4.2,0.7,4.1,3.9c-0.2,10.1-0.1,20.3,0,30.4
	c0,2.7-0.8,3.9-3.7,3.8c-4.5-0.2-9-0.1-13.9-0.1c-0.9-0.5-1.3-1.1-1.3-1.8C390.1,424.4,389.6,412.6,390.7,400.5z"/>
<path class="st4" d="M408.5,387.6c0.5,11.3,1.3,9.2-8.2,9.4c-2.8,0.1-5.6,0-8.9,0c-1.9-1.9-1.4-4.1-1.4-6.2
	c-0.1-2.7,1.5-4.1,3.9-4.1C398.7,386.6,403.5,385.8,408.5,387.6z"/>
<path class="st28" d="M408.9,387.5c-4.1,0.4-8.2,0.8-12.3,0.4c-4.6-0.4-6.4,1.2-5.7,5.7c0.1,0.8,0,1.6,0,2.9
	c-4.2-2.3-1.8-6.5-1.6-9.9c0.1-3,3.5-1.5,5.4-1.6c3.5-0.2,7-0.1,10.5,0C406.8,385,408.8,384.5,408.9,387.5z"/>
<path class="st28" d="M390.6,400.1c0.4,12.3,0.4,24.6,0.4,37.4c-1.9,0.3-2-1-1.9-2.4c0-11,0-21.9,0-32.9
	C389,401.3,389.3,400.6,390.6,400.1z"/>
<path class="st28" d="M426.5,385c1.8,0.3,4-0.7,4.1,1.4c0.1,2.6-2.4,1.6-3.8,1.6c-4.9,0.1-9.9,0-15.3,0c-0.8-2.5,0.6-3,2.8-3
	C418.2,385.1,422.1,385,426.5,385z"/>
<path class="st4" d="M411,186.1c0-7.1,0-7.1,6.8-7.1c12.2,0,12.2,0,12.2,12.2c0,7.1-0.1,14.3,0.1,21.4c0.1,3.1-0.7,4.6-4.2,4.4
	c-3.6-0.2-7.3-0.2-11,0c-3.1,0.2-4.1-1-4-4C411.1,204.2,411,195.4,411,186.1z"/>
<path class="st4" d="M390.7,179.5c4.9-0.4,9.6-0.3,14.2-0.5c2.9-0.1,4.2,0.7,4.2,3.9c-0.2,10.1-0.2,20.3,0,30.4
	c0.1,3.2-1.4,3.9-4.2,3.8c-4.3-0.2-8.6,0-13.4-0.1c-0.9-0.5-1.3-1.1-1.3-1.8C390.1,203.4,389.6,191.6,390.7,179.5z"/>
<path class="st4" d="M429.6,166.7c0.4,9.3,0.4,9.3-8.4,9.3c-0.7,0-1.3,0-2,0c-9.3-0.1-8.1,1.3-8.2-8.6
	C417,164.4,423.1,165.3,429.6,166.7z"/>
<path class="st4" d="M408.5,166.6c0.5,11.3,1.5,9.1-8.7,9.4c-2.6,0.1-5.3,0-8.4,0c-1.9-1.9-1.4-4.1-1.5-6.2
	c-0.1-2.7,1.4-4.1,3.9-4.1C398.7,165.6,403.5,164.8,408.5,166.6z"/>
<path class="st28" d="M408.9,166.5c-4.1,0.4-8.2,0.8-12.3,0.4c-4.6-0.4-6.4,1.2-5.7,5.7c0.1,0.8,0,1.6,0,2.9
	c-4.3-2.3-1.8-6.5-1.7-9.8c0.1-3,3.5-1.5,5.4-1.6c3.5-0.2,7-0.1,10.5,0C406.8,164.1,408.8,163.5,408.9,166.5z"/>
<path class="st28" d="M390.5,179.1c0.4,12.2,0.4,24.6,0.4,37.4c-1.9,0.3-2-1-2-2.4c0-11,0-21.9,0-32.9
	C389,180.4,389.3,179.6,390.5,179.1z"/>
<path class="st28" d="M430,166.6c-6,0.4-12,0.4-18.5,0.4c-0.5-1.4-0.5-2.9,1.4-2.9c5.1-0.1,10.3,0,15.4,0
	C429.5,164.1,429.9,165.1,430,166.6z"/>
<path class="st28" d="M532.6,235c0.3,0.2,0.4,0.4,0.4,0.8c2,5.8,0.7,11.5,0.3,17.6c-0.2,2.2-0.2,4-0.3,6.2c-0.2,0.7-0.4,0.9-1.1,1.3
	c-8.9,1.2-17.4,0.4-25.8,0.7c-2.2,0.1-4.3,0.1-6.9,0.3c-0.8-0.1-1.1-0.2-1.7-0.5c-0.1-0.8,0.2-1.3,0.6-2c0.8-0.9,1.3-1.6,2.6-2.1
	c8.4-1.1,16.4-0.4,24.4-0.6c5.4-0.2,5.7-0.3,5.7-5.6c0-13.1,0.7-11.2-11.2-11.4c-6.2-0.1-12.3,0.3-18.9-0.4c-1.3-0.4-2-0.9-2.6-2.1
	c-0.2-0.7-0.3-1-0.1-1.7c0.2-0.4,0.2-0.4,0.2-0.4c1-0.8,2.3-1.2,4-1.4c7.7-0.1,15-0.2,22.3-0.1c2,0,3.9,0.4,6.3,1.2
	C531.4,234.9,531.9,234.9,532.6,235z"/>
<path class="st14" d="M530.8,234.6c-9.2,0.3-18.5,0.3-28.3,0.3c-0.6-2.4,1.4-2.9,3-3.6c7.3-3.2,14.6-3.8,22.1,0.4
	C528.9,232.8,529.8,233.6,530.8,234.6z"/>
<path class="st6" d="M494.5,270.2c-0.8-0.3-1.2-0.3-1.8-0.4c-0.3,0-0.3-0.4-0.3-0.6c1.3-3.2,4.1-2.6,6.5-2.7c2.2-0.1,4.3-0.1,6.9,0
	c6.1-0.2,11.7-0.1,17.8,0c4.9,0.1,9.4-0.8,14.1,1.1c0.4,0.3,0.4,0.3,0.4,0.3c0.1,0.2,0.2,0.4,0.2,0.8c-6.4,2.3-12.9,0.7-19.8,1.2
	C510.3,272.3,502.6,271.7,494.5,270.2z"/>
<path class="st4" d="M528,231.7c-8.8-2.5-17.4-2.3-25.7,3c-1.3,0.3-2.4,0.3-3.9,0.3C502.6,226.9,520.3,224.2,528,231.7z"/>
<path class="st4" d="M497.6,235c0.4,0.1,0.4,0.3,0.4,0.7c0.6,1,0.5,1.8,0.2,2.9c-7.4,7-7.6,15.5-6.4,24.4
	C488.1,253.7,489.5,240.7,497.6,235z"/>
<path class="st12" d="M506.3,267.7c-4.6,0.7-9-0.4-13.6,1.2c-0.3-2.8,1.9-4.6,4.3-6.6c3.5,0.9,6.7,0,9.8,1.4
	C508,265.1,507.6,266.3,506.3,267.7z"/>
<path class="st11" d="M498,239.5c0-1.2,0-2,0.1-3.1c0.3,0.1,0.7,0.6,1,1.4c2.6,6.5,1.1,13,1.1,19.8c-0.6,0.8-1,1.1-1.7,1.4
	C498.1,252.6,498,246.3,498,239.5z"/>
<path class="st12" d="M497,261.2c0.2-0.2,0.4-0.2,0.9-0.2c0.4,0.5,0.2,0.8-0.5,1.1c-0.3,0-0.4-0.1-0.4-0.1
	C496.9,261.9,497,261.5,497,261.2z"/>
<path class="st14" d="M494.3,270.3c7.4-0.3,15.1-0.3,23.2-0.3C510.2,274.8,502.4,273.7,494.3,270.3z"/>
<path class="st12" d="M538.3,269.1c-0.2-0.2-0.3-0.4-0.2-0.8c0.3-0.1,0.5,0.1,0.9,0.6C539,269,538.6,269.1,538.3,269.1z"/>
<path class="st12" d="M538,267.6c-4.4,0.4-8.8,0.4-13.6,0.4c-1.2-0.9-1.4-1.8-1.1-3.2c1.6-2.6,3.9-2.7,6.2-2.5
	c1.3,0.1,2.2-0.1,2.2-1.9c0.4-0.3,0.5-0.3,1-0.3C534.8,262.3,537.1,264.3,538,267.6z"/>
<path class="st14" d="M533.4,253.6c-0.3-5.4-0.3-11-0.3-17.1c3.8,3.6,1.5,8.5,1.6,13C534.6,250.8,534,252.1,533.4,253.6z"/>
<path class="st14" d="M499.7,307.8c0.4,0.6,0.6,0.8,1.1,1.1c1,1.4,3.1,1.6,3.3,3.8c0.5,3.5-0.3,5.4-4,4.5c-1.3-0.3-1.6,0.8-2.7,1.4
	c-4,1.1-7.7,0.8-11.8,0.4c-6-1.4-11.8,0.1-17.8-1.4c-1.2-0.8-1.4-1.6-1.3-2.9C474.1,304.4,489,301,499.7,307.8z"/>
<path class="st12" d="M493.4,343c-2.8,0-5.2-0.1-8.1-0.2c-2.2-2.4-1.9-4.9-0.6-7.8c4.4-2.2,8.5-1.8,13.1-0.5c2.1,2.7,2,5.2,0.5,8.2
	C496.6,343,495.2,343,493.4,343z"/>
<path class="st3" d="M498.2,343.3c-0.2-2.7-0.2-5.1-0.2-8c0.2-0.6,0.5-0.8,1.1-1.1c1.6-0.4,2.8-0.2,4.2,0.8c1.4,2.7,1.3,5,0.1,7.7
	C501.5,343.2,499.9,343.4,498.2,343.3z"/>
<path class="st18" d="M504.9,313.5c2,5.4,0.7,11.3,1,17.1c0.2,4.1,0,8.2,0,12.8c-2.7,0.3-1.8-1.9-1.9-3.3
	c-0.3-6.9-0.6-13.8-0.4-21.2C504,316.9,503.9,315.3,504.9,313.5z"/>
<path class="st3" d="M504.5,317.9c0.6,8.5,0.7,17,1.1,25.7c-0.2,1.7-1.2,1.5-2.3,0.5c0.3-3.6,0.6-7-0.5-10.7
	c-0.4-2.4-0.2-4.4-0.3-6.8c0.2-2.7-0.1-5.1,0.7-7.8C503.6,318.2,503.9,318,504.5,317.9z"/>
<path class="st27" d="M505,317.6c-0.1,0.4-0.5,0.4-0.7,0.4c-0.8,0.5-0.8,1.3-1.2,2.2c-2.1,1.1-3.6,0.8-5-1.6c0-1.8,0.1-2.9,0.4-5.1
	c2.7,5.4,4.1,3.6,5.4-0.1c0.3-0.3,0.5-0.3,1-0.3C505.1,314.5,505.1,315.8,505,317.6z"/>
<path class="st15" d="M503.6,332.9c0.4,3.6,0.8,7-0.1,10.6c-0.3,0.3-0.4-0.1-0.4-0.3c-0.1-2.6-0.1-5-0.2-7.9c-0.3-0.8-0.4-1.2-0.3-2
	C502.9,332.9,503.1,332.8,503.6,332.9z"/>
<path class="st17" d="M485.1,334.4c0,2.8-0.1,5.2-0.2,8c-5.7,0.5-11.3,0.6-17.3,0.8c-1.7-3-0.8-6.2-0.9-9.7
	C473,331,479.2,329.7,485.1,334.4z"/>
<path class="st5" d="M500,307.7c-4.7-0.5-9.2-2.6-14.4-2.2c-7.1,0.6-12.4,4.2-17.9,8.5c-0.9,0-1.2-0.4-1-1.4
	c0.8-4.8,4.7-5.8,7.8-7.5C482,301,494.4,301.6,500,307.7z"/>
<path class="st4" d="M466.2,318.7c-4.4,2.3-3.5,6.4-4.1,9.7c-0.5,2.7-0.1,5.6-0.1,8.8c-3.8-8.2-2.4-17.8,3.4-23.2
	C467,315.3,466.4,316.8,466.2,318.7z"/>
<path class="st18" d="M465.9,319.5c0-1.9,0-3.3-0.1-5.1c0.1-0.9,0.4-1.4,0.8-2c0.3,0.3,0.4,0.7,0.6,1.4c0.1,0.9,0,1.6-0.1,2.6
	c1.7,2.8,1.3,5.7,1.3,8.9c0,2.6,0.2,4.8-1.1,7.2c-0.3,3.5-0.4,6.6-0.3,10.3c0,0.6,0,0.8-0.1,0.9c-0.5,0.6-0.9,0.3-0.9-0.2
	c-0.1-5.8-0.1-11.7-0.1-17.5C466,324,466,322,465.9,319.5z"/>
<path class="st4" d="M328,295.3c1-3.5,3.6-2.3,5.5-2.3c13.4-0.2,13.4-0.1,13.4,13.4c0,6.3-0.1,12.6,0.1,19c0.1,3.3-0.8,4.6-4.4,4.7
	c-14.6,0.2-14.6,0.3-14.6-14.3C328,309.1,328,302.4,328,295.3z"/>
<path class="st4" d="M307.8,293.4c4.6-0.4,8.9-0.3,13.2-0.4c2.9-0.1,4.1,0.8,4.1,3.9c-0.2,9.8-0.1,19.6,0,29.3
	c0,2.7-0.8,3.9-3.7,3.8c-4.1-0.2-8.3,0-12.9,0c-0.9-0.5-1.3-1.1-1.3-1.8C307.1,316.7,306.5,305.3,307.8,293.4z"/>
<path class="st5" d="M346.6,279.7C347,290,347,290,337.2,290c-9.2,0-9.2,0-9.2-9.5c2.4-2.5,5.3-2.2,8-1.8
	C339.4,279.1,342.9,278.5,346.6,279.7z"/>
<path class="st5" d="M324.7,279.7C325,290,325,290,314.8,290c-2,0-3.9,0-6.4,0c-2-2.5-1.3-5.2-1.3-7.7c0-2.2,1.5-3.4,3.5-3.4
	C315.2,278.6,319.8,277.8,324.7,279.7z"/>
<path class="st28" d="M325.3,279.8c-4,0.3-7.8,0.5-11.6,0.2c-4.4-0.4-6.5,1-5.8,5.6c0.2,1.1,0,2.3,0,3.9c-3.9-2.8-1.8-7.1-1.6-10.8
	c0.2-2.9,3.5-1.5,5.4-1.6c3.6-0.2,7.3-0.1,10.9,0C324.2,277.1,326.4,276.6,325.3,279.8z"/>
<path class="st28" d="M307.6,293c0.4,12,0.4,24,0.4,36.5c-1.8,0.3-2-0.9-2-2.3c0-10.7,0-21.4,0-32.1
	C306,294.2,306.3,293.5,307.6,293z"/>
<path class="st28" d="M346.9,279.6c-6,0.4-12,0.4-18.5,0.4c-0.4-1.1-0.6-2.7,0.9-2.8C335.3,276.8,341.2,277.1,346.9,279.6z"/>
<path class="st27" d="M180.5,192.4c0.6,0.4,0.9,0.6,1.1,0.8c1.8,2,1.9,4.1,0.3,6.3c-1.1,1.5-2.7,2-4.4,1.2c-2-1-2.8-2.8-2.3-5
	C175.7,193,177.3,191.6,180.5,192.4z"/>
<path class="st4" d="M347,190c0,8-0.1,15.5,0,22.9c0.1,2.9-0.8,4-3.9,4.1c-15.1,0.5-15.1,0.6-15.1-14.3c0-6.6,0.1-13.3,0-19.9
	c-0.1-2.7,0.8-4,3.7-3.8c3.5,0.2,7,0.3,10.5,0c4.1-0.4,5.4,1.3,4.9,5.1C346.8,185.9,347,187.7,347,190z"/>
<path class="st4" d="M307.7,179.5c4.6-0.4,8.9-0.3,13.2-0.5c2.9-0.1,4.2,0.7,4.2,3.9c-0.2,10.1-0.1,20.3,0,30.4
	c0,2.7-0.8,3.9-3.7,3.8c-4.1-0.2-8.3,0-12.9-0.1c-0.9-0.5-1.3-1.1-1.3-1.8C307.1,203.4,306.6,191.6,307.7,179.5z"/>
<path class="st4" d="M346.6,166.7c0.4,9.3,0.4,9.3-8.4,9.3c-0.7,0-1.3,0-2,0c-9.4-0.1-8.1,1.2-8.2-8.6
	C334,164.4,340.1,165.3,346.6,166.7z"/>
<path class="st4" d="M325.5,166.6c0.4,1.6,0.5,2.9,0.5,4.2c0.1,3.6-1.3,5.5-5.2,5.2c-3.9-0.2-7.9,0-12.2,0c-1.9-1.9-1.4-4.1-1.5-6.2
	c-0.1-2.7,1.4-4.1,3.9-4.1C315.6,165.6,320.4,164.8,325.5,166.6z"/>
<path class="st28" d="M325.9,166.5c-4.1,0.4-8.2,0.8-12.3,0.4c-4.6-0.4-6.3,1.3-5.6,5.7c0.1,0.8,0,1.6,0,2.9
	c-4.3-2.3-1.8-6.5-1.7-9.8c0-3,3.5-1.6,5.4-1.7c3.5-0.2,7-0.1,10.5,0C323.7,164.1,325.7,163.5,325.9,166.5z"/>
<path class="st28" d="M307.6,179.1c0.4,12.3,0.4,24.6,0.4,37.4c-1.9,0.4-2-1-2-2.4c0-11,0-21.9,0-32.9
	C306,180.3,306.2,179.6,307.6,179.1z"/>
<path class="st28" d="M347,166.6c-6,0.4-12,0.4-18.5,0.4c-0.5-1.4-0.5-2.9,1.4-2.9c5.3,0,10.6,0,16,0.1
	C346.7,164.3,346.9,165.3,347,166.6z"/>
<path class="st24" d="M500.5,258c-2.5-6.2-0.9-12.7-1.4-19.5c9.5-0.5,19-0.4,28.5-0.6c3.1-0.1,4.6,0.7,4.4,4.1c-0.2,4-0.2,8,0,12
	c0.2,3.1-1.1,4-4.1,4C518.9,257.9,509.9,258,500.5,258z"/>
<path class="st1" d="M531.5,260c1.3,2.5,0.7,4.3-2.3,3.5c-1.8-0.5-3.1,0.2-5,0.5c-5.6,2.7-11,1.8-16.7,0.3c-3.6-0.9-7.2,1-10.3-1.9
	c0.2-0.6,0.5-0.8,0.9-1.2c2.9-1.9,5.9-1.1,8.8-1.2C514.9,259.9,523,260,531.5,260z"/>
<path class="st14" d="M507,264.3c5.3-0.3,10.6-0.3,16.3-0.3c0.5,1,0.6,2.1,0.6,3.5c-5.7,0.4-11.3,0.5-17.5,0.5
	C506.3,266.9,506.6,265.8,507,264.3z"/>
<path class="st15" d="M467.6,326.6c-0.4-3.2-0.5-6.1-0.5-9.4c5.8,0.3,11.6-1.1,17.6,0.6c2.1,2.6,2,5.2,0.8,8.2
	C479.5,328.4,473.7,327.8,467.6,326.6z"/>
<path class="st12" d="M485.3,326.3c-0.3-2.7-0.3-5-0.3-7.8c4-0.5,8-0.5,12.5-0.5c0.5,0,0.5,0.1,0.6,0.2c0.9,2.5,1.8,4.9,0.3,7.9
	C493.9,328.1,489.8,328,485.3,326.3z"/>
<path class="st22" d="M484.5,326c4.5,0,8.5,0,13,0c0.6,0.1,0.8,0.3,1.1,0.7c0.6,1.6,0.4,2.9,0.9,4.5c0.1,0.5,0.2,0.8,0.2,1.3
	c0,0.8-0.2,1.2-0.7,1.7c-0.3,0.2-0.7,0.3-0.9,0.4c-4.2,0.1-8.1,0.2-12.5,0.2c-2.5-2.9-5.6-1.6-8.2-1.7c-3.1-0.2-6.3-0.1-9.8-0.2
	c-0.4-2-0.4-3.9-0.4-6.2C472.8,326.2,478.4,326.1,484.5,326z"/>
<path class="st2" d="M499.1,334.6c-0.3-0.5-0.3-0.8-0.2-1.3c1-1.2,2.1-1.4,3.8-0.6c0.3,0.7,0.3,1.1,0.2,1.9
	C501.7,334.8,500.6,334.8,499.1,334.6z"/>
<path class="st6" d="M503.3,333c-1.3,0-2.4,0-3.9,0c-0.5-0.1-0.5-0.3-0.6-0.8c0.1-1.8,0.3-3.4-0.4-5.1c-0.2-0.3-0.2-0.7-0.3-0.9
	c0-2.5,0-4.8,0-7.6c1.2,0.6,2.3,1.8,4.5,1.3c2.2,1.6-2.3,4,1.2,5.7c0.2,2.4,0.2,4.4,0.2,7C503.9,333.1,503.5,333,503.3,333z"/>
<path class="st15" d="M504,325.5c-1.3-0.6-3.8,0-4.2-1.8c-0.5-2.1,3-1.1,3.2-3.4c0.2-0.9,0.4-1.5,0.8-2.2
	C504,320.3,504,322.7,504,325.5z"/>
<path class="st6" d="M510.1,245.1c3-1.3,1.6,0.9,1.5,1.8c-0.1,1.3-0.4,2.6-0.9,3.8c-0.4,1.1-0.2,3.1-2,2.9c-1.6-0.2-1.5-1.9-1.7-3.2
	c-0.1-0.5-0.2-1-0.4-2.3c-0.3,1.4-0.5,2.1-0.6,2.7c-0.2,1.2-0.4,2.6-1.7,2.7c-1.8,0.1-1.8-1.8-2-2.9c-0.3-2.1-1.8-4-0.8-6.4
	c2.9,0.5,1.8,3.4,2.8,5c1.4-1.5-0.5-4.7,2.3-4.9c2.1-0.1,0.7,2.5,1.7,3.7C509.4,247.6,509.6,246.4,510.1,245.1z"/>
<path class="st25" d="M522.8,244.5c4-0.5,8.3-1.5,7.1,4.8c-0.3,1.5,0.9,3.9-1.1,4.3c-2.4,0.4-1-2.7-2.5-3.9c-0.5-0.4-0.6-0.6-0.8-1
	c-0.5-1.3-1.4-1.7-2.5-2.4C522.5,245.6,522.5,245.2,522.8,244.5z"/>
<path class="st23" d="M522.6,244.2c0.4,0.4,0.5,0.9,0.5,1.6c0.8,1.2,2.2,1.1,3,2.3c-0.1,0.5-0.1,0.7-0.1,1.1
	c-2.6,0.3-2.8,2.7-4.2,5.6C521,250.4,519.8,247.3,522.6,244.2z"/>
<path class="st23" d="M515,249c-0.2,1.8,0.6,3.4-1.2,4.9c-1.4-3.3-0.5-6.3-0.7-9.9C515.7,245.3,514.8,247.1,515,249z"/>
<path class="st2" d="M498.1,327.2c3.2,0.6,1,2.9,1,4.7C497.5,330.7,498.1,329.1,498.1,327.2z"/>
<path class="st24" d="M526.3,248.3c-1.1-0.5-2.8,0.2-3.2-1.8C524.4,246.5,527,244.5,526.3,248.3z"/>
</svg>
